<?xml version="1.0" encoding="UTF-8" standalone="no"?><!DOCTYPE svg PUBLIC "-//W3C//DTD SVG 1.1//EN" "http://www.w3.org/Graphics/SVG/1.1/DTD/svg11.dtd"><svg width="100%" height="100%" viewBox="0 0 2083 1385" version="1.1" xmlns="http://www.w3.org/2000/svg" xmlns:xlink="http://www.w3.org/1999/xlink" xml:space="preserve" xmlns:serif="http://www.serif.com/" style="fill-rule:evenodd;clip-rule:evenodd;stroke-linejoin:round;stroke-miterlimit:2;"><g opacity="0.5"><g id="midia" opacity="0.5"><path d="M261.329,418.917c3.827,-0.006 7.789,0.837 11.887,2.527c4.098,1.691 7.51,4.513 10.237,8.467l225.767,350.822l-22.141,-0.817l227.736,-350.616c6.028,-8.49 13.414,-12.176 22.16,-11.057c6.561,-0.01 12.161,2.386 16.8,7.185c4.639,4.8 6.953,10.875 6.941,18.226l-0.889,542.828c-0.011,6.785 -2.481,12.726 -7.41,17.822c-4.929,5.096 -10.947,7.649 -18.054,7.659c-7.654,0.011 -13.938,-2.525 -18.85,-7.607c-4.912,-5.082 -7.362,-11.015 -7.351,-17.801l0.804,-491.089l14.759,1.675l-208.012,325.143c-1.646,3.395 -4.111,6.084 -7.394,8.068c-3.284,1.983 -7.112,2.696 -11.485,2.136c-3.828,0.571 -7.517,-0.13 -11.068,-2.104c-3.55,-1.974 -6.416,-4.656 -8.597,-8.046l-207.763,-327.946l15.6,-11.048l-0.825,503.812c-0.011,6.785 -2.345,12.726 -7,17.821c-4.655,5.096 -10.537,7.649 -17.644,7.659c-7.108,0.01 -12.844,-2.526 -17.209,-7.609c-4.366,-5.083 -6.543,-11.017 -6.532,-17.803l0.889,-542.828c0.011,-6.785 2.344,-12.725 7,-17.821c4.655,-5.096 10.537,-7.648 17.644,-7.658Z" style="fill:#fff;fill-rule:nonzero;"/><path d="M914.804,990.327c-0.009,5.94 -2.478,11.14 -7.406,15.602c-4.928,4.462 -10.672,6.698 -17.232,6.707c-7.108,0.01 -12.981,-2.209 -17.621,-6.657c-4.64,-4.449 -6.955,-9.643 -6.945,-15.582l0.559,-341.535c0.01,-5.94 2.342,-11.14 6.996,-15.602c4.654,-4.461 10.535,-6.697 17.643,-6.707c7.107,-0.01 12.981,2.209 17.62,6.657c4.64,4.449 6.955,9.643 6.946,15.582l-0.56,341.535Zm-23.925,-413.519c-11.481,0.016 -20.088,-2.323 -25.821,-7.017c-5.733,-4.694 -8.592,-11.496 -8.577,-20.406l0.012,-7.424c0.015,-8.91 3.169,-15.72 9.464,-20.431c6.295,-4.712 14.91,-7.075 25.844,-7.09c10.388,-0.015 18.448,2.325 24.181,7.019c5.733,4.694 8.592,11.496 8.578,20.405l-0.013,7.425c-0.014,8.91 -2.896,15.72 -8.644,20.43c-5.748,4.71 -14.089,7.073 -25.024,7.089Z" style="fill:#fff;fill-rule:nonzero;"/><path d="M1392.12,428.098c7.447,-0.01 13.601,2.211 18.463,6.663c4.861,4.452 7.287,10.088 7.275,16.908l-0.876,535.1c-0.01,6.295 -2.597,11.807 -7.76,16.536c-5.163,4.728 -11.181,7.098 -18.055,7.107c-7.447,0.011 -13.601,-2.341 -18.462,-7.056c-4.861,-4.714 -7.287,-10.219 -7.276,-16.514l0.153,-93.643l14.625,-11.037c-0.024,14.689 -4.345,30.04 -12.964,46.052c-8.618,16.013 -20.815,30.85 -36.59,44.512c-15.774,13.663 -34.122,24.705 -55.044,33.129c-20.921,8.423 -43.411,12.652 -67.47,12.686c-38.378,0.054 -72.875,-9.078 -103.491,-27.395c-30.615,-18.318 -54.776,-43.203 -72.482,-74.654c-17.706,-31.451 -26.525,-67.374 -26.459,-107.769c0.065,-39.87 9.002,-75.687 26.812,-107.451c17.809,-31.764 41.908,-56.717 72.297,-74.859c30.389,-18.142 64.772,-27.24 103.151,-27.295c23.485,-0.033 45.819,3.87 67,11.709c21.181,7.839 39.923,18.567 56.226,32.184c16.303,13.616 29.166,29.205 38.589,46.766c9.422,17.561 14.118,35.785 14.087,54.67l-18.024,-11.778l0.46,-280.927c0.01,-6.295 2.454,-11.807 7.33,-16.535c4.877,-4.729 11.039,-7.098 18.485,-7.109Zm-179.612,546.37c30.932,-0.044 58.009,-7.296 81.232,-21.755c23.222,-14.46 41.585,-34.159 55.087,-59.097c13.502,-24.938 20.279,-53.407 20.331,-85.408c0.052,-31.477 -6.633,-59.665 -20.053,-84.564c-13.42,-24.9 -31.861,-44.547 -55.323,-58.94c-23.462,-14.394 -50.373,-21.569 -80.732,-21.526c-29.786,0.042 -56.577,7.294 -80.373,21.754c-23.795,14.46 -42.444,34.16 -55.946,59.097c-13.502,24.938 -20.279,53.146 -20.33,84.622c-0.052,31.476 6.633,59.796 20.053,84.958c13.419,25.162 32.004,44.939 55.752,59.332c23.748,14.393 50.515,21.569 80.302,21.527Z" style="fill:#fff;fill-rule:nonzero;"/><path d="M2056.41,608.301c7.446,-0.011 13.6,2.341 18.461,7.056c4.861,4.714 7.287,10.482 7.275,17.302l-0.58,354.11c-0.01,6.295 -2.597,11.807 -7.76,16.536c-5.163,4.728 -11.181,7.098 -18.055,7.107c-7.446,0.011 -13.6,-2.341 -18.462,-7.056c-4.861,-4.714 -7.286,-10.219 -7.276,-16.514l0.153,-93.643l14.618,-6.316c-0.025,14.689 -4.488,29.647 -13.392,44.873c-8.903,15.226 -21.099,29.408 -36.586,42.545c-15.488,13.137 -33.692,23.786 -54.613,31.947c-20.921,8.161 -43.411,12.259 -67.469,12.293c-38.952,0.055 -73.735,-9.076 -104.351,-27.394c-30.615,-18.318 -54.632,-43.465 -72.051,-75.441c-17.418,-31.977 -26.095,-67.9 -26.03,-107.77c0.067,-40.919 9.005,-76.999 26.813,-108.238c17.809,-31.239 41.907,-55.799 72.296,-73.679c30.388,-17.879 64.772,-26.846 103.15,-26.901c24.631,-0.034 47.681,3.867 69.148,11.706c21.468,7.839 40.21,18.567 56.227,32.184c16.016,13.617 28.449,29.206 37.299,46.768c8.85,17.562 13.26,35.786 13.229,54.671l-18.025,-11.778l0.164,-99.937c0.011,-6.82 2.455,-12.594 7.332,-17.323c4.876,-4.728 11.038,-7.098 18.485,-7.108Zm-179.318,366.167c30.359,-0.043 57.293,-7.295 80.802,-21.755c23.509,-14.46 42.015,-34.421 55.518,-59.884c13.503,-25.462 20.28,-53.932 20.332,-85.408c0.05,-30.952 -6.635,-58.747 -20.055,-83.384c-13.421,-24.637 -31.862,-44.284 -55.324,-58.94c-23.461,-14.656 -50.371,-21.962 -80.731,-21.919c-29.786,0.042 -56.577,7.162 -80.372,21.361c-23.795,14.198 -42.443,33.634 -55.945,58.31c-13.501,24.676 -20.278,53.014 -20.33,85.015c-0.052,31.477 6.632,59.927 20.051,85.351c13.42,25.425 31.861,45.334 55.322,59.727c23.462,14.393 50.373,21.569 80.732,21.526Z" style="fill:#fff;fill-rule:nonzero;"/><path d="M1571.05,990.325c-0.009,5.94 -2.478,11.141 -7.406,15.604c-4.928,4.462 -10.672,6.698 -17.232,6.707c-7.108,0.01 -12.981,-2.209 -17.621,-6.658c-4.64,-4.449 -6.955,-9.643 -6.945,-15.583l0.559,-341.567c0.01,-5.94 2.342,-11.141 6.996,-15.603c4.655,-4.462 10.535,-6.698 17.643,-6.708c7.107,-0.01 12.981,2.209 17.621,6.658c4.639,4.449 6.954,9.643 6.945,15.583l-0.56,341.567Zm-23.925,-413.558c-11.481,0.017 -20.088,-2.323 -25.821,-7.017c-5.733,-4.695 -8.592,-11.497 -8.577,-20.408l0.012,-7.425c0.015,-8.91 3.169,-15.721 9.464,-20.433c6.295,-4.712 14.91,-7.075 25.844,-7.091c10.388,-0.015 18.448,2.325 24.181,7.02c5.733,4.695 8.592,11.497 8.578,20.408l-0.013,7.425c-0.014,8.91 -2.896,15.721 -8.644,20.432c-5.748,4.711 -14.089,7.074 -25.024,7.089Z" style="fill:#fff;fill-rule:nonzero;"/></g><g id="sign"><g><path d="M438.485,1123.57c15.461,-2.639 42.415,-17.847 78.168,-43.649c64.288,-45.067 113.205,-95.846 144.435,-148.152c7.812,-11.941 10.973,-20.057 10.219,-24.475c1.382,8.099 11.403,-4.219 38.608,-17.954c39.829,-19.679 62.617,-32.66 67.484,-44.098c2.191,-4.92 3.394,-11.187 2.263,-17.813c-0.879,-5.154 -4.955,-11.277 -10.988,-15.551c-6.033,-4.274 -14.509,-5.101 -23.344,-3.593c-8.098,1.382 -26.486,9.067 -51.232,23.897c-16.79,8.17 -25.858,12.748 -28.803,13.251c-0.736,0.126 -0.736,0.126 -2.963,-4.041c-6.176,-9.553 -20.936,-16.126 -42.448,-22.304c-20.65,-5.568 -45.466,-8.909 -70.39,-8.444c-18.298,-0.665 -64.698,2.708 -137.729,9.868c-74.252,8.885 -128.876,12.904 -163.874,12.058c-34.998,-0.846 -61.412,-4.672 -80.23,-12.826c-9.966,-5.118 -19.446,-11.834 -27.472,-23.345c-9.373,-10.523 -14.077,-20.328 -15.711,-29.899c-1.074,-55.127 28.989,-123.146 90.55,-206.39c61.56,-83.244 138.115,-162.985 228.316,-238.237c81.886,-66.255 167.615,-123.317 255.229,-169.335c88.349,-46.144 160.07,-74.296 217.496,-84.097c50.064,-8.545 72.815,0.453 77.339,26.957c4.9,28.714 -7.708,70.265 -39.405,128.712c-54.738,101.022 -146.521,211.396 -276.086,331.25c-53.226,47.726 -101.568,88.557 -145.887,121.882c-30.241,22.588 -48.109,37.761 -51.754,47.475c-2.066,5.656 -1.546,13.144 -0.289,20.507c6.23,23.182 25.784,31.21 55.233,26.184c15.461,-2.639 27.96,-9.318 38.483,-18.691c17.976,-18.979 41.949,-42.771 72.046,-70.638c142.136,-139.426 245.789,-260.161 309.739,-360.482c64.56,-101.182 92.739,-180.244 83.315,-235.462c-4.524,-26.504 -19.211,-45.97 -41.728,-58.038c-22.392,-11.332 -54.696,-14.153 -94.452,-7.368c-49.328,8.419 -108.551,29.892 -177.668,64.419c-68.256,35.137 -141.63,80.24 -218.398,136.53c-129.671,92.596 -232.659,195.033 -310.687,306.091c-37.245,52.575 -64.075,99.585 -79.143,140.04c-14.332,40.33 -19.093,79.027 -13.313,112.894c9.927,58.162 58.786,86.949 142.895,86.99c31.065,0.002 77.591,-2.635 140.925,-8.898c84.074,-9.046 144.104,-12.472 182.908,-11.518c38.804,0.954 61.663,6.145 71.521,15.07c4.184,2.316 3.322,1.706 3.322,1.706c-0.252,-1.473 -2.694,1.975 -14.815,10.863c-35.879,25.065 -73.447,57.996 -113.816,96.708c-68.868,67.065 -102.826,112.26 -98.68,136.556c2.011,11.779 9.768,17.275 20.811,15.39Zm10.166,-38.104c3.412,-6.644 26.398,-31.782 57.609,-57.566c27.044,-23.557 66.712,-53.058 120.961,-90.351c-9.895,13.054 -20.651,25.497 -31.408,37.941c-29.954,33.146 -68.509,64.73 -119.957,96.241c-14.455,8.528 -27.941,13.861 -43.025,18.708l15.82,-4.973Z" style="fill:#fff;fill-rule:nonzero;"/><path d="M819.452,1074.45l14.815,-2.475c25.578,-7.396 77.336,-36.878 154.692,-86.913c71.062,-45.64 111.974,-70.921 120.504,-75.58c17.14,-8.596 26.425,-19.921 24.71,-35.067c-3.704,-12.719 -14.121,-18.07 -29.181,-17.759c-14.569,4.639 -50.268,29.306 -104.862,73.738c-52.268,38.312 -91.283,67.023 -117.208,84.693c-22.691,12.903 -43.719,20.495 -63.002,23.496c-11.917,1.403 -16.712,-0.955 -19.018,-7.992c-0.317,-9.464 2.6,-23.694 7.844,-44.044c5.162,-21.072 12.058,-40.155 20.444,-59.414c7.805,-17.729 15.018,-27.348 21.395,-31.022c19.293,-9.581 27.842,-27.397 25.475,-48.313c-3.378,-9.834 -10.316,-17.787 -19.907,-22.505c-9.591,-4.718 -21.09,-6.287 -32.343,-5.693l-11.836,2.124c-19.283,3.001 -32.71,17.738 -40.269,37.63c-11.059,35.652 -13.608,79.803 -8.637,130.378c1.551,13.704 3.766,26.598 6.562,37.963c8.143,31.929 25.325,50.37 49.822,46.755Zm16.607,-366.652c3.113,20.829 21.386,28.909 46.873,27.37c19.202,-3.722 34.934,-11.421 44.137,-23.468c7.958,-9.707 12.773,-20.506 12.293,-31.412c-3.031,-20.107 -19.815,-28.363 -46.791,-26.649c-36.832,7.991 -56.635,26.402 -56.512,54.159Z" style="fill:#fff;fill-rule:nonzero;"/><path d="M1099.91,1379.52c41.896,-2.917 86.55,-32.706 132.611,-87.049c46.11,-53.604 87.373,-123.917 122.293,-210.832c17.509,-42.72 30.213,-78.436 39.56,-107.989c6.184,-20.44 19.471,-70.277 39.958,-148.036c21.723,-12.629 41.346,-22.888 58.821,-31.516c17.523,-7.89 33.741,-12.725 50.201,-13.871c5.985,-0.417 8.229,-0.573 9.773,0.06l10.619,1.484c8.229,-0.573 16.266,-4.097 21.963,-8.94c5.697,-4.843 9.005,-11.744 8.524,-19.121c-0.576,-8.853 -6.39,-17.341 -16.452,-21.828c-8.614,-5.329 -20.777,-7.446 -33.495,-6.561c-20.948,1.459 -46,9.133 -75.109,23.758c-11.682,5.26 -19.719,8.784 -24.812,11.362l1.037,4.374c-0.337,-5.164 0.075,-10.38 0.487,-15.596c0.363,-5.954 0.583,-14.122 0.562,-25.978c-2.307,-35.411 -14.223,-56.814 -38.163,-55.147c-17.207,1.198 -47.016,16.614 -86.434,46.038c-15.134,9.947 -23.123,14.209 -26.116,14.417c0.749,-0.052 3.137,2.005 3.137,2.005c-5.162,-10.016 -13.22,-18.348 -24.826,-23.468c-10.955,-6.648 -24.662,-9.399 -37.38,-8.514c-17.207,1.199 -35.574,7.665 -52.157,18.454c-15.786,11.475 -35.628,29.901 -57.331,54.386c-29.451,32.436 -44.324,57.927 -43.027,77.846c0.577,8.853 4.146,17.498 12.156,25.092c7.962,6.856 17.928,9.868 27.654,9.19c17.207,-1.198 41.223,-13.245 72.94,-33.981c31.668,-21.474 52.788,-31.837 62.514,-32.515c12.718,-0.885 23.7,-5.356 33.041,-11.935c9.293,-7.317 14.75,-15.849 14.125,-25.439c-0.577,-8.853 18.662,-25.015 65.053,-51.219c22.471,-12.681 35.602,-18.783 39.294,-19.781c6.83,1.006 10.303,8.175 11.696,29.57c0.721,11.066 -0.15,20.761 -2.518,30.56c-3.356,6.162 -16.85,18.218 -41.977,36.272c-67.586,46.948 -128.054,99.33 -181.308,158.62c-54.051,58.604 -96.831,117.165 -128.993,177.209c-30.714,59.202 -46.053,112.147 -43.025,158.624c1.778,27.297 9.905,48.222 24.333,62.039c12.883,13.184 30.571,19.363 50.771,17.956Zm-51.019,-79.449c-2.211,-33.936 7.26,-73.132 29.813,-119.167c21.757,-46.722 51.84,-92.541 87.955,-138.039c37.564,-46.34 77.805,-86.196 121.375,-121.097l31.525,-23.687c13.638,-9.843 28.024,-19.737 43.158,-29.684c15.134,-9.947 28.072,-19 38.862,-26.421c11.537,-7.474 18.126,-10.156 7.652,-9.426l-0.432,-6.64c0.48,7.377 -10.295,49.629 -34.618,126.172c-42.367,134.123 -94.33,236.306 -155.044,307.973c-47.414,56.66 -89.172,84.764 -126.579,87.369c-28.477,1.242 -41.408,-12.679 -43.667,-47.353Zm93.282,-460.04c-0.096,-1.476 2.656,-5.373 11.057,-14.851c9.149,-9.53 18.346,-18.323 30.44,-28.799c7.845,-6.475 14.242,-12.108 20.686,-17.003c0.097,1.475 0.193,2.951 0.289,4.426c0.336,5.164 -0.268,7.43 -3.068,10.589c-3.5,3.949 -10.694,8.897 -23.727,16.474c-25.272,15.84 -37.558,23.366 -41.299,23.626c3.741,-0.26 5.718,7.013 5.622,5.538Z" style="fill:#fff;fill-rule:nonzero;"/><path d="M1437.76,1205.84c18.741,-0.547 36.57,-7.633 52.738,-21.236c10.92,-13.45 18.128,-25.333 20.911,-34.168c5.546,-18.4 22.139,-45.147 50.456,-83.179c28.335,-37.303 58.26,-71.005 91.236,-102.608c28.606,-26.368 47.022,-40.037 55.232,-41.735c0.768,0.707 1.517,0.685 3.035,1.37c0.785,1.436 1.607,4.33 2.447,7.953c1.661,6.518 4.09,13.742 5.86,24.633c5.29,31.945 14.862,55.01 29.465,69.174c14.604,14.165 37.273,20.798 65.759,19.967c25.487,-0.744 55.346,-6.722 89.559,-18.663c34.213,-11.942 64.642,-25.232 89.769,-40.555c27.322,-17.577 41.955,-32.594 41.558,-48.632c-0.216,-8.748 -5.643,-15.885 -14.765,-20.725c-3.053,-2.1 -6.837,-3.449 -9.835,-3.361c-8.996,0.263 -20.774,9.361 -36.869,25.88c-22.003,20.339 -49.307,38.644 -82.68,54.209c-33.374,15.564 -60.948,22.935 -83.437,23.591c-31.484,0.919 -48.21,-8.077 -56.193,-27.541c-3.287,-11.576 -7.431,-27.505 -12.488,-49.972c-2.609,-14.515 -8.162,-26.755 -14.358,-34.599c-7.748,-9.987 -15.353,-14.142 -22.849,-13.923c-5.247,0.153 -11.19,2.515 -17.865,5.628c-7.424,3.135 -22.129,15.236 -41.9,34.781c-20.54,18.837 -43.238,41.385 -68.113,66.915c-25.607,26.281 -49,51.038 -71.645,75.773c-8.707,11.926 -17.486,20.937 -25.552,28.468c-7.334,6.779 -10.279,9.054 -10.279,9.054c-2.249,0.065 5.374,4.95 5.338,3.492c-0.253,-10.206 14.751,-40.555 46.438,-94.005c31.687,-53.45 67.871,-107.032 108.536,-161.474c29.103,-36.596 44.946,-63.321 44.55,-79.359c-0.235,-9.477 -5.716,-18.801 -16.355,-24.327c-8.39,-5.591 -18.225,-8.952 -27.971,-8.667c-11.994,0.35 -23.862,5.803 -34.872,15.608c-9.511,9.761 -17.433,23.124 -22.284,39.315c-10.416,33.862 -37.605,87.181 -80.032,161.372c-33.81,58.619 -56.021,100.85 -67.385,126.715c-10.614,25.843 -16.802,48.639 -16.352,66.864c0.198,8.019 1.164,16.745 2.861,24.72c0.93,7.268 4.109,14.47 8.697,17.984c3.838,3.536 11.388,5.504 19.634,5.263Z" style="fill:#fff;fill-rule:nonzero;"/></g></g></g></svg>