<?xml version="1.0" encoding="UTF-8" standalone="no"?><!DOCTYPE svg PUBLIC "-//W3C//DTD SVG 1.1//EN" "http://www.w3.org/Graphics/SVG/1.1/DTD/svg11.dtd"><svg width="100%" height="100%" viewBox="0 0 5295 1914" version="1.1" xmlns="http://www.w3.org/2000/svg" xmlns:xlink="http://www.w3.org/1999/xlink" xml:space="preserve" xmlns:serif="http://www.serif.com/" style="fill-rule:evenodd;clip-rule:evenodd;stroke-linejoin:round;stroke-miterlimit:2;"><g><path d="M2478.49,705.013c23.347,2.656 32.383,30.013 27.084,82.031c-3.177,25.483 -11.146,53.113 -23.893,82.826c-12.748,29.74 -28.672,60.013 -47.787,90.795c-18.073,28.671 -37.981,57.617 -59.739,86.81c-21.771,29.218 -44.35,57.343 -67.683,84.427c-23.372,27.07 -46.744,53.111 -70.091,78.046c-23.372,24.961 -45.143,47.539 -65.312,67.696c11.68,-43.529 24.14,-88.92 37.435,-136.186c13.268,-47.239 28.672,-93.983 46.198,-140.168c17.525,-46.199 37.435,-90.248 59.726,-132.214c22.305,-41.94 48.828,-79.896 79.636,-113.893c32.916,-36.081 61.054,-52.813 84.426,-50.17Zm-370.338,1076.77c0.521,35.599 -3.451,62.396 -11.94,80.443c-6.38,12.748 -11.953,19.388 -16.732,19.909c-4.778,0.547 -9.036,-2.383 -12.734,-8.764c-3.737,-6.366 -6.654,-14.335 -8.763,-23.892c-2.149,-9.558 -3.19,-18.047 -3.19,-25.483c-0,-22.304 2.396,-48.828 7.161,-79.648c4.792,-30.781 10.886,-64.232 18.321,-100.351c18.046,56.302 27.33,102.227 27.877,137.786Zm-94.778,102.748c13.789,20.182 33.971,29.74 60.533,28.659c11.667,-0 21.758,-3.972 30.261,-11.94c8.489,-7.969 15.39,-17.761 20.703,-29.466c10.612,-21.224 15.937,-51.771 15.937,-91.589c0,-39.818 -10.104,-90.521 -30.26,-152.123c60.521,-10.598 117.864,-23.893 172.018,-39.817c54.167,-15.925 106.185,-35.287 156.107,-58.139c49.896,-22.825 98.203,-49.895 144.948,-81.236c46.719,-31.316 92.904,-68.229 138.581,-110.703c8.489,-8.49 9.01,-16.459 1.601,-23.894c-7.447,-5.299 -15.416,-4.779 -23.906,1.589c-44.596,42.487 -90.274,79.114 -136.979,109.908c-46.745,30.808 -95.052,57.345 -144.948,79.649c-49.935,22.305 -101.953,40.885 -156.107,55.742c-54.154,14.896 -111.497,27.63 -172.031,38.23c9.557,-45.638 20.169,-91.315 31.862,-136.98c11.667,-45.651 22.825,-88.125 33.45,-127.435c21.224,-20.156 45.118,-43.802 71.68,-70.872c26.523,-27.083 53.607,-56.276 81.237,-87.617c27.591,-31.316 54.674,-64.232 81.237,-98.763c26.523,-34.48 50.416,-68.737 71.667,-102.735c30.794,-49.895 53.372,-97.682 67.708,-143.359c14.336,-45.638 15.13,-86.016 2.383,-121.054c-9.558,-24.414 -27.631,-39.819 -54.154,-46.199c-26.562,-6.367 -51.523,-4.765 -74.87,4.779c-26.549,11.706 -51.51,29.752 -74.857,54.166c-23.372,24.441 -44.882,51.524 -64.518,81.238c-19.661,29.739 -36.914,60.273 -51.758,91.588c-14.895,31.328 -27.63,59.727 -38.242,85.208c-18.06,46.746 -36.106,99.037 -54.154,156.901c-18.059,57.892 -35.038,117.084 -50.963,177.605c-1.068,5.325 -2.148,10.104 -3.19,14.336c-1.068,4.257 -2.669,9.036 -4.779,14.336c-56.302,45.677 -117.07,78.046 -182.383,97.161c-65.299,19.128 -135.664,29.753 -211.054,31.862c-75.417,2.136 -155.299,-2.109 -239.727,-12.734c-84.427,-10.612 -173.372,-23.36 -266.81,-38.243c-53.112,-7.408 -118.138,-16.445 -195.117,-27.07c-77.005,-10.599 -158.242,-19.909 -243.711,-27.877c-85.495,-7.956 -170.716,-12.995 -255.651,-15.13c-84.974,-2.123 -161.432,1.067 -229.375,9.557c-24.44,3.19 -50.443,7.955 -78.047,14.335c-27.63,6.368 -53.111,15.678 -76.458,27.878c-23.372,12.214 -42.761,28.425 -58.138,48.581c-15.404,20.182 -23.099,45.664 -23.099,76.446c0,6.38 1.836,11.158 5.573,14.348c3.711,3.178 7.969,4.779 12.747,4.779c4.779,0 9.271,-1.601 13.529,-4.779c4.232,-3.19 6.38,-7.968 6.38,-14.348c0,-24.402 6.888,-44.323 20.703,-59.727c13.789,-15.378 30.794,-27.878 50.977,-37.422c20.156,-9.571 41.94,-16.732 65.299,-21.511c23.347,-4.778 44.61,-8.216 63.724,-10.351c65.821,-8.489 140.964,-11.679 225.391,-9.558c84.414,2.136 169.088,7.162 254.049,15.131c84.948,7.968 165.912,17.266 242.917,27.864c76.979,10.639 140.964,19.675 191.94,27.097c92.383,13.815 179.987,25.755 262.826,35.833c82.825,10.104 161.406,14.336 235.742,12.735c74.323,-1.589 144.401,-11.393 210.26,-29.454c65.834,-18.06 127.943,-47.786 186.367,-89.206l-11.158,42.995c-6.368,26.562 -13.542,56.55 -21.498,90c-7.968,33.451 -15.13,67.709 -21.51,102.747c-6.367,35.04 -10.899,69.571 -13.542,103.542c-2.656,33.998 -1.341,64.258 3.984,90.781c5.3,22.305 14.87,43.568 28.673,63.725Z" style="fill:#fff;fill-rule:nonzero;"/><path d="M2665.65,1242.6c-17.526,-20.156 -32.904,-41.666 -46.198,-64.505c-13.268,-22.825 -23.099,-46.445 -29.466,-70.885c-6.38,-24.414 -6.38,-47.787 0,-70.092c7.435,-23.346 21.498,-40.064 42.214,-50.168c20.69,-10.092 42.213,-9.819 64.505,0.794c18.034,9.557 31.302,23.646 39.817,42.213c8.49,18.594 14.063,39.024 16.732,61.329c2.63,22.291 2.63,44.869 0,67.682c-2.669,22.851 -6.12,42.76 -10.364,59.74c-6.368,26.562 -15.924,51.523 -28.672,74.856c-14.844,-13.789 -31.055,-30.781 -48.568,-50.964Zm754.219,166.446c65.82,-18.555 136.184,-28.906 211.042,-31.055c74.869,-2.109 154.518,2.149 238.931,12.747c84.428,10.625 172.826,22.852 265.209,36.641c35.052,5.326 75.911,11.419 122.656,18.308c46.719,6.927 96.888,13.541 150.534,19.909c53.607,6.38 109.102,12.226 166.445,17.526c57.344,5.325 114.414,9.309 171.237,11.94c56.797,2.668 111.745,3.737 164.857,3.19c53.086,-0.522 102.474,-3.972 148.139,-10.352c24.414,-3.19 50.416,-7.956 78.059,-14.336c27.591,-6.38 53.086,-15.651 76.445,-27.877c23.347,-12.188 42.735,-28.399 58.151,-48.581c15.378,-20.157 23.087,-45.638 23.087,-76.446c-0,-6.38 -2.136,-11.159 -6.368,-14.349c-4.257,-3.176 -8.763,-4.778 -13.541,-4.778c-4.779,-0 -9.037,1.602 -12.748,4.778c-3.736,3.19 -5.573,7.969 -5.573,14.349c-0,24.428 -6.913,44.336 -20.703,59.714c-13.815,15.417 -30.82,27.878 -50.976,37.435c-20.183,9.57 -41.966,16.732 -65.3,21.51c-23.372,4.779 -44.596,8.23 -63.711,10.352c-65.859,8.515 -140.977,11.705 -225.404,9.557c-84.414,-2.109 -169.114,-7.161 -254.049,-15.13c-84.974,-7.969 -165.937,-17.253 -242.917,-27.877c-77.005,-10.6 -140.963,-19.636 -191.94,-27.084c-95.573,-13.789 -186.367,-25.729 -272.382,-35.833c-86.016,-10.078 -167.527,-13.542 -244.506,-10.352c-77.005,3.19 -149.479,15.13 -217.422,35.834c-67.982,20.716 -131.693,54.947 -191.145,102.734c-36.12,31.862 -73.816,62.682 -113.086,92.395c-39.297,29.74 -77.54,55.235 -114.688,76.459c-8.515,5.325 -20.183,11.693 -35.052,19.115c-14.883,7.447 -30.808,13.802 -47.786,19.115c-16.992,5.325 -32.917,7.72 -47.787,7.174c-14.883,-0.535 -25.482,-7.174 -31.849,-19.922c-9.557,-18.047 -10.104,-48.828 -1.601,-92.383c3.19,-15.925 6.9,-31.588 11.158,-46.979c4.232,-15.391 8.477,-30.521 12.748,-45.404c4.218,-19.114 3.424,-36.888 -2.396,-53.359c-5.846,-16.458 -14.883,-31.862 -27.083,-46.198c-12.214,-14.336 -25.482,-27.605 -39.818,-39.818c-14.336,-12.201 -27.878,-24.153 -40.612,-35.846c8.477,-14.857 15.651,-30.26 21.498,-46.185c5.82,-15.938 10.872,-31.315 15.13,-46.198c5.299,-20.156 9.284,-43.529 11.952,-70.091c2.631,-26.524 2.384,-52.292 -0.793,-77.253c-3.19,-24.935 -10.365,-48.033 -21.511,-69.284c-11.146,-21.236 -27.878,-37.161 -50.182,-47.786c-15.925,-7.422 -32.097,-11.146 -48.568,-11.146c-16.458,0 -31.862,3.451 -46.198,10.351c-14.349,6.914 -26.81,16.719 -37.435,29.467c-10.599,12.747 -18.568,27.083 -23.893,42.994c-6.367,21.263 -7.969,43.021 -4.779,65.326c3.191,22.292 9.31,43.789 18.321,64.505c9.036,20.704 19.908,40.612 32.656,59.727c12.734,19.128 26.028,36.64 39.818,52.578c5.325,6.367 11.419,13.281 18.32,20.69c6.914,7.448 14.609,14.883 23.099,22.305c14.844,14.883 29.466,29.219 43.802,43.007c14.336,13.816 25.729,26.563 34.245,38.23c10.599,15.937 14.336,29.739 11.146,41.419l-30.261,105.13c-5.326,22.292 -7.174,46.459 -5.573,72.474c1.589,26.029 8.75,49.128 21.498,69.284c13.789,21.263 31.067,34.518 51.771,39.818c20.702,5.338 42.213,6.133 64.505,2.395c22.304,-3.71 44.609,-10.351 66.901,-19.908c22.305,-9.558 41.419,-19.114 57.343,-28.672c38.23,-21.237 78.047,-47.514 119.466,-78.841c41.42,-31.315 80.691,-63.438 117.865,-96.381c55.209,-44.596 115.743,-76.171 181.602,-94.778Z" style="fill:#fff;fill-rule:nonzero;"/><path d="M2665.64,1242.6c-17.526,-20.156 -32.904,-41.666 -46.198,-64.505c-13.268,-22.825 -23.099,-46.445 -29.466,-70.885c-6.38,-24.414 -6.38,-47.787 0,-70.092c7.435,-23.346 21.497,-40.064 42.213,-50.168c20.704,-10.092 42.214,-9.819 64.506,0.794c18.047,9.557 31.315,23.646 39.83,42.213c8.477,18.594 14.05,39.024 16.719,61.329c2.643,22.291 2.643,44.869 -0,67.682c-2.669,22.851 -6.12,42.76 -10.364,59.74c-6.355,26.562 -15.925,51.523 -28.659,74.856c-14.857,-13.789 -31.055,-30.781 -48.581,-50.964Zm754.219,166.446c65.82,-18.555 136.185,-28.906 211.042,-31.055c74.882,-2.109 154.517,2.149 238.932,12.747c84.427,10.625 172.825,22.852 265.221,36.641c35.039,5.326 75.899,11.419 122.656,18.308c46.706,6.927 96.875,13.541 150.521,19.909c53.607,6.38 109.102,12.226 166.446,17.526c57.343,5.325 114.426,9.309 171.237,11.94c56.797,2.668 111.757,3.737 164.869,3.19c53.086,-0.522 102.462,-3.972 148.139,-10.352c24.414,-3.19 50.416,-7.956 78.046,-14.336c27.604,-6.38 53.086,-15.651 76.458,-27.877c23.347,-12.188 42.735,-28.399 58.139,-48.581c15.39,-20.157 23.099,-45.638 23.099,-76.446c-0,-6.38 -2.136,-11.159 -6.381,-14.349c-4.244,-3.176 -8.763,-4.778 -13.528,-4.778c-4.779,-0 -9.037,1.602 -12.748,4.778c-3.736,3.19 -5.573,7.969 -5.573,14.349c-0,24.428 -6.927,44.336 -20.703,59.714c-13.815,15.417 -30.82,27.878 -50.976,37.435c-20.183,9.57 -41.966,16.732 -65.313,21.51c-23.359,4.779 -44.596,8.23 -63.71,10.352c-65.847,8.515 -140.965,11.705 -225.392,9.557c-84.426,-2.109 -169.114,-7.161 -254.062,-15.13c-84.974,-7.969 -165.938,-17.253 -242.917,-27.877c-77.005,-10.6 -140.963,-19.636 -191.94,-27.084c-95.573,-13.789 -186.354,-25.729 -272.382,-35.833c-86.016,-10.078 -167.527,-13.542 -244.493,-10.352c-77.018,3.19 -149.492,15.13 -217.434,35.834c-67.97,20.716 -131.693,54.947 -191.146,102.734c-36.121,31.862 -73.815,62.682 -113.086,92.395c-39.297,29.74 -77.527,55.235 -114.688,76.459c-8.516,5.325 -20.182,11.693 -35.052,19.115c-14.87,7.447 -30.807,13.802 -47.787,19.115c-16.992,5.325 -32.916,7.72 -47.786,7.174c-14.87,-0.535 -25.481,-7.174 -31.849,-19.922c-9.557,-18.047 -10.104,-48.828 -1.601,-92.383c3.19,-15.925 6.901,-31.588 11.159,-46.979c4.231,-15.391 8.476,-30.521 12.747,-45.404c4.219,-19.114 3.425,-36.888 -2.396,-53.359c-5.847,-16.458 -14.883,-31.862 -27.083,-46.198c-12.214,-14.336 -25.482,-27.605 -39.818,-39.818c-14.336,-12.201 -27.877,-24.153 -40.612,-35.846c8.476,-14.857 15.651,-30.26 21.497,-46.185c5.821,-15.938 10.873,-31.315 15.13,-46.198c5.3,-20.156 9.298,-43.529 11.954,-70.091c2.643,-26.524 2.382,-52.292 -0.795,-77.253c-3.19,-24.935 -10.351,-48.033 -21.51,-69.284c-11.146,-21.236 -27.865,-37.161 -50.169,-47.786c-15.937,-7.422 -32.109,-11.146 -48.581,-11.146c-16.459,0 -31.862,3.451 -46.198,10.351c-14.336,6.914 -26.81,16.719 -37.435,29.467c-10.599,12.747 -18.567,27.083 -23.893,42.994c-6.367,21.263 -7.969,43.021 -4.779,65.326c3.19,22.292 9.31,43.789 18.321,64.505c9.036,20.704 19.909,40.612 32.656,59.727c12.734,19.128 26.029,36.64 39.817,52.578c5.326,6.367 11.433,13.281 18.321,20.69c6.927,7.448 14.61,14.883 23.099,22.305c14.857,14.883 29.466,29.219 43.802,43.007c14.336,13.816 25.729,26.563 34.245,38.23c10.598,15.937 14.335,29.739 11.145,41.419l-30.26,105.13c-5.325,22.292 -7.175,46.459 -5.572,72.474c1.587,26.029 8.762,49.128 21.497,69.284c13.788,21.263 31.067,34.518 51.77,39.818c20.704,5.338 42.214,6.133 64.519,2.395c22.292,-3.71 44.596,-10.351 66.901,-19.908c22.292,-9.558 41.406,-19.114 57.331,-28.672c38.242,-21.237 78.047,-47.514 119.478,-78.841c41.407,-31.315 80.678,-63.438 117.865,-96.381c55.209,-44.596 115.729,-76.171 181.589,-94.778Z" style="fill:#fff;fill-rule:nonzero;"/><path d="M2478.49,705.013c23.347,2.67 32.383,30.013 27.084,82.031c-3.177,25.495 -11.146,53.113 -23.893,82.826c-12.748,29.752 -28.672,60.013 -47.787,90.795c-18.073,28.671 -37.981,57.617 -59.739,86.81c-21.771,29.218 -44.35,57.343 -67.683,84.427c-23.372,27.083 -46.744,53.111 -70.091,78.046c-23.372,24.974 -45.143,47.539 -65.312,67.696c11.68,-43.516 24.14,-88.92 37.435,-136.186c13.268,-47.239 28.672,-93.983 46.198,-140.168c17.525,-46.199 37.435,-90.248 59.726,-132.214c22.305,-41.927 48.828,-79.883 79.636,-113.88c32.916,-36.094 61.054,-52.812 84.426,-50.183Zm-370.338,1076.77c0.521,35.599 -3.451,62.396 -11.94,80.443c-6.38,12.748 -11.953,19.401 -16.732,19.909c-4.778,0.547 -9.036,-2.383 -12.734,-8.75c-3.737,-6.38 -6.654,-14.336 -8.763,-23.906c-2.149,-9.545 -3.19,-18.034 -3.19,-25.483c-0,-22.304 2.396,-48.828 7.161,-79.634c4.792,-30.782 10.886,-64.232 18.321,-100.352c18.046,56.289 27.33,102.214 27.877,137.773Zm-94.778,102.748c13.789,20.182 33.971,29.74 60.533,28.671c11.667,0 21.758,-3.984 30.261,-11.94c8.489,-7.968 15.39,-17.773 20.703,-29.478c10.612,-21.224 15.937,-51.759 15.937,-91.589c0,-39.818 -10.104,-90.521 -30.26,-152.123c60.521,-10.598 117.864,-23.88 172.018,-39.817c54.167,-15.925 106.185,-35.287 156.107,-58.139c49.896,-22.825 98.203,-49.895 144.948,-81.236c46.719,-31.316 92.904,-68.216 138.581,-110.703c8.489,-8.477 9.01,-16.446 1.601,-23.894c-7.447,-5.299 -15.416,-4.779 -23.906,1.602c-44.596,42.474 -90.274,79.115 -136.979,109.895c-46.745,30.821 -95.052,57.345 -144.948,79.649c-49.935,22.305 -101.953,40.885 -156.107,55.742c-54.154,14.896 -111.497,27.63 -172.031,38.23c9.557,-45.638 20.169,-91.315 31.862,-136.98c11.667,-45.638 22.825,-88.125 33.45,-127.422c21.224,-20.169 45.118,-43.815 71.68,-70.885c26.523,-27.083 53.607,-56.276 81.237,-87.617c27.591,-31.302 54.674,-64.232 81.237,-98.75c26.523,-34.493 50.416,-68.75 71.667,-102.748c30.794,-49.895 53.372,-97.682 67.708,-143.359c14.336,-45.638 15.13,-86.003 2.383,-121.054c-9.558,-24.414 -27.631,-39.819 -54.154,-46.186c-26.562,-6.38 -51.523,-4.778 -74.87,4.779c-26.549,11.693 -51.51,29.739 -74.857,54.153c-23.372,24.441 -44.882,51.524 -64.518,81.238c-19.661,29.739 -36.914,60.273 -51.758,91.588c-14.895,31.328 -27.63,59.74 -38.242,85.208c-18.06,46.746 -36.106,99.05 -54.154,156.901c-18.059,57.892 -35.038,117.084 -50.963,177.618c-1.068,5.326 -2.148,10.091 -3.19,14.323c-1.068,4.257 -2.669,9.036 -4.779,14.336c-56.302,45.677 -117.07,78.06 -182.383,97.174c-65.299,19.115 -135.664,29.74 -211.054,31.849c-75.417,2.148 -155.299,-2.109 -239.727,-12.734c-84.427,-10.599 -173.372,-23.36 -266.81,-38.229c-53.112,-7.422 -118.138,-16.459 -195.117,-27.084c-77.005,-10.599 -158.242,-19.909 -243.711,-27.877c-85.495,-7.956 -170.716,-12.982 -255.651,-15.13c-84.974,-2.123 -161.432,1.067 -229.375,9.557c-24.44,3.19 -50.443,7.955 -78.047,14.335c-27.63,6.381 -53.111,15.678 -76.458,27.878c-23.372,12.227 -42.761,28.425 -58.138,48.581c-15.404,20.182 -23.099,45.664 -23.099,76.458c0,6.368 1.836,11.146 5.573,14.336c3.711,3.178 7.969,4.779 12.747,4.779c4.779,0 9.271,-1.601 13.529,-4.779c4.232,-3.19 6.38,-7.968 6.38,-14.336c0,-24.414 6.888,-44.335 20.703,-59.726c13.789,-15.391 30.794,-27.878 50.977,-37.435c20.156,-9.557 41.94,-16.732 65.299,-21.511c23.347,-4.778 44.61,-8.203 63.724,-10.351c65.821,-8.489 140.964,-11.667 225.391,-9.558c84.414,2.136 169.088,7.162 254.049,15.131c84.948,7.968 165.912,17.266 242.917,27.877c76.979,10.626 140.964,19.662 191.94,27.084c92.383,13.815 179.987,25.755 262.826,35.833c82.825,10.104 161.406,14.336 235.742,12.748c74.323,-1.602 144.401,-11.394 210.26,-29.467c65.834,-18.046 127.943,-47.786 186.367,-89.206l-11.158,43.008c-6.368,26.549 -13.542,56.537 -21.498,90.001c-7.968,33.45 -15.13,67.695 -21.51,102.733c-6.367,35.04 -10.899,69.571 -13.542,103.542c-2.656,33.998 -1.341,64.258 3.984,90.781c5.3,22.305 14.87,43.568 28.673,63.725Z" style="fill:#fff;fill-rule:nonzero;"/><path d="M2665.65,1242.6c-17.526,-20.156 -32.904,-41.653 -46.198,-64.505c-13.268,-22.825 -23.099,-46.445 -29.466,-70.885c-6.38,-24.414 -6.38,-47.787 0,-70.092c7.435,-23.346 21.498,-40.064 42.214,-50.168c20.69,-10.078 42.213,-9.805 64.505,0.794c18.034,9.557 31.302,23.646 39.817,42.213c8.49,18.594 14.063,39.024 16.732,61.329c2.63,22.291 2.63,44.869 0,67.695c-2.669,22.838 -6.12,42.747 -10.364,59.727c-6.368,26.562 -15.924,51.523 -28.672,74.869c-14.844,-13.789 -31.055,-30.794 -48.568,-50.977Zm754.219,166.459c65.82,-18.568 136.184,-28.919 211.042,-31.068c74.869,-2.109 154.518,2.149 238.931,12.747c84.428,10.625 172.826,22.852 265.209,36.641c35.052,5.326 75.911,11.419 122.656,18.308c46.719,6.927 96.888,13.541 150.534,19.909c53.607,6.38 109.102,12.226 166.445,17.526c57.344,5.325 114.414,9.309 171.237,11.952c56.797,2.67 111.745,3.725 164.857,3.178c53.086,-0.508 102.474,-3.972 148.139,-10.352c24.414,-3.19 50.416,-7.956 78.059,-14.336c27.591,-6.367 53.086,-15.651 76.445,-27.877c23.347,-12.188 42.735,-28.399 58.151,-48.568c15.378,-20.17 23.087,-45.651 23.087,-76.459c-0,-6.38 -2.136,-11.159 -6.368,-14.349c-4.257,-3.176 -8.763,-4.765 -13.541,-4.765c-4.779,0 -9.037,1.589 -12.748,4.765c-3.736,3.19 -5.573,7.969 -5.573,14.349c-0,24.428 -6.913,44.336 -20.703,59.727c-13.815,15.404 -30.82,27.878 -50.976,37.422c-20.183,9.57 -41.966,16.732 -65.3,21.51c-23.372,4.779 -44.596,8.243 -63.711,10.352c-65.859,8.515 -140.977,11.705 -225.404,9.557c-84.414,-2.109 -169.114,-7.161 -254.049,-15.13c-84.974,-7.956 -165.937,-17.253 -242.917,-27.865c-77.005,-10.612 -140.963,-19.648 -191.94,-27.083c-95.573,-13.789 -186.367,-25.73 -272.382,-35.846c-86.016,-10.078 -167.527,-13.542 -244.506,-10.352c-77.005,3.19 -149.479,15.13 -217.422,35.834c-67.982,20.716 -131.693,54.96 -191.145,102.747c-36.12,31.849 -73.816,62.669 -113.086,92.382c-39.297,29.74 -77.54,55.235 -114.688,76.459c-8.515,5.325 -20.183,11.693 -35.052,19.115c-14.883,7.447 -30.808,13.814 -47.786,19.115c-16.992,5.325 -32.917,7.72 -47.787,7.174c-14.883,-0.535 -25.482,-7.174 -31.849,-19.922c-9.557,-18.034 -10.104,-48.828 -1.601,-92.383c3.19,-15.925 6.9,-31.588 11.158,-46.979c4.232,-15.391 8.477,-30.521 12.748,-45.404c4.218,-19.114 3.424,-36.888 -2.396,-53.359c-5.846,-16.458 -14.883,-31.862 -27.083,-46.198c-12.214,-14.336 -25.482,-27.605 -39.818,-39.818c-14.336,-12.201 -27.878,-24.141 -40.612,-35.833c8.477,-14.87 15.651,-30.273 21.498,-46.198c5.82,-15.925 10.872,-31.315 15.13,-46.198c5.299,-20.156 9.284,-43.529 11.952,-70.078c2.631,-26.537 2.384,-52.305 -0.793,-77.266c-3.19,-24.935 -10.365,-48.033 -21.511,-69.284c-11.146,-21.224 -27.878,-37.161 -50.182,-47.786c-15.925,-7.409 -32.097,-11.146 -48.568,-11.146c-16.458,0 -31.862,3.451 -46.198,10.351c-14.349,6.928 -26.81,16.719 -37.435,29.467c-10.599,12.747 -18.568,27.083 -23.893,43.008c-6.367,21.249 -7.969,43.007 -4.779,65.312c3.191,22.292 9.31,43.802 18.321,64.505c9.036,20.716 19.908,40.625 32.656,59.74c12.734,19.115 26.028,36.627 39.818,52.565c5.325,6.367 11.419,13.281 18.32,20.703c6.914,7.435 14.609,14.87 23.099,22.305c14.844,14.87 29.466,29.206 43.802,42.994c14.336,13.816 25.729,26.563 34.245,38.243c10.599,15.924 14.336,29.726 11.146,41.406l-30.261,105.13c-5.326,22.292 -7.174,46.471 -5.573,72.474c1.589,26.029 8.75,49.128 21.498,69.297c13.789,21.25 31.067,34.505 51.771,39.818c20.702,5.325 42.213,6.12 64.505,2.382c22.304,-3.71 44.609,-10.351 66.901,-19.908c22.305,-9.558 41.419,-19.114 57.343,-28.672c38.23,-21.224 78.047,-47.514 119.466,-78.841c41.42,-31.315 80.691,-63.438 117.865,-96.367c55.209,-44.61 115.743,-76.185 181.602,-94.779Z" style="fill:#fff;fill-rule:nonzero;"/><path d="M2665.64,1242.6c-17.526,-20.156 -32.904,-41.653 -46.198,-64.505c-13.268,-22.825 -23.099,-46.445 -29.466,-70.885c-6.38,-24.414 -6.38,-47.787 0,-70.092c7.435,-23.346 21.497,-40.064 42.213,-50.168c20.704,-10.078 42.214,-9.805 64.506,0.794c18.047,9.557 31.315,23.646 39.83,42.213c8.477,18.594 14.05,39.024 16.719,61.329c2.643,22.291 2.643,44.869 -0,67.695c-2.669,22.838 -6.12,42.747 -10.364,59.727c-6.355,26.562 -15.925,51.523 -28.659,74.869c-14.857,-13.789 -31.055,-30.794 -48.581,-50.977Zm754.219,166.459c65.82,-18.568 136.185,-28.919 211.042,-31.068c74.882,-2.109 154.517,2.149 238.932,12.747c84.427,10.625 172.825,22.852 265.221,36.641c35.039,5.326 75.899,11.419 122.656,18.308c46.706,6.927 96.875,13.541 150.521,19.909c53.607,6.38 109.102,12.226 166.446,17.526c57.343,5.325 114.426,9.309 171.237,11.952c56.797,2.67 111.757,3.725 164.869,3.178c53.086,-0.508 102.462,-3.972 148.139,-10.352c24.414,-3.19 50.416,-7.956 78.046,-14.336c27.604,-6.367 53.086,-15.651 76.458,-27.877c23.347,-12.188 42.735,-28.399 58.139,-48.568c15.39,-20.17 23.099,-45.651 23.099,-76.459c-0,-6.38 -2.136,-11.159 -6.381,-14.349c-4.244,-3.176 -8.763,-4.765 -13.528,-4.765c-4.779,0 -9.037,1.589 -12.748,4.765c-3.736,3.19 -5.573,7.969 -5.573,14.349c-0,24.428 -6.927,44.336 -20.703,59.727c-13.815,15.404 -30.82,27.878 -50.976,37.422c-20.183,9.57 -41.966,16.732 -65.313,21.51c-23.359,4.779 -44.596,8.243 -63.71,10.352c-65.847,8.515 -140.965,11.705 -225.392,9.557c-84.426,-2.109 -169.114,-7.161 -254.062,-15.13c-84.974,-7.956 -165.938,-17.253 -242.917,-27.865c-77.005,-10.612 -140.963,-19.648 -191.94,-27.083c-95.573,-13.789 -186.354,-25.73 -272.382,-35.846c-86.016,-10.078 -167.527,-13.542 -244.493,-10.352c-77.018,3.19 -149.492,15.13 -217.434,35.834c-67.97,20.716 -131.693,54.96 -191.146,102.747c-36.121,31.849 -73.815,62.669 -113.086,92.382c-39.297,29.74 -77.527,55.235 -114.688,76.459c-8.516,5.325 -20.182,11.693 -35.052,19.115c-14.87,7.447 -30.807,13.814 -47.787,19.115c-16.992,5.325 -32.916,7.72 -47.786,7.174c-14.87,-0.535 -25.481,-7.174 -31.849,-19.922c-9.557,-18.034 -10.104,-48.828 -1.601,-92.383c3.19,-15.925 6.901,-31.588 11.159,-46.979c4.231,-15.391 8.476,-30.521 12.747,-45.404c4.219,-19.114 3.425,-36.888 -2.396,-53.359c-5.847,-16.458 -14.883,-31.862 -27.083,-46.198c-12.214,-14.336 -25.482,-27.605 -39.818,-39.818c-14.336,-12.201 -27.877,-24.141 -40.612,-35.833c8.476,-14.87 15.651,-30.273 21.497,-46.198c5.821,-15.925 10.873,-31.315 15.13,-46.198c5.3,-20.156 9.298,-43.529 11.954,-70.078c2.643,-26.537 2.382,-52.305 -0.795,-77.266c-3.19,-24.935 -10.351,-48.033 -21.51,-69.284c-11.146,-21.224 -27.865,-37.161 -50.169,-47.786c-15.937,-7.409 -32.109,-11.146 -48.581,-11.146c-16.459,0 -31.862,3.451 -46.198,10.351c-14.336,6.928 -26.81,16.719 -37.435,29.467c-10.599,12.747 -18.567,27.083 -23.893,43.008c-6.367,21.249 -7.969,43.007 -4.779,65.312c3.19,22.292 9.31,43.802 18.321,64.505c9.036,20.716 19.909,40.625 32.656,59.74c12.734,19.115 26.029,36.627 39.817,52.565c5.326,6.367 11.433,13.281 18.321,20.703c6.927,7.435 14.61,14.87 23.099,22.305c14.857,14.87 29.466,29.206 43.802,42.994c14.336,13.816 25.729,26.563 34.245,38.243c10.598,15.924 14.335,29.726 11.145,41.406l-30.26,105.13c-5.325,22.292 -7.175,46.471 -5.572,72.474c1.587,26.029 8.762,49.128 21.497,69.297c13.788,21.25 31.067,34.505 51.77,39.818c20.704,5.325 42.214,6.12 64.519,2.382c22.292,-3.71 44.596,-10.351 66.901,-19.908c22.292,-9.558 41.406,-19.114 57.331,-28.672c38.242,-21.224 78.047,-47.514 119.478,-78.841c41.407,-31.315 80.678,-63.438 117.865,-96.367c55.209,-44.61 115.729,-76.185 181.589,-94.779Z" style="fill:#fff;fill-rule:nonzero;"/><path d="M4126.59,1120.42l-88.594,-352.252c-2.591,-0.04 -5.183,-0.092 -7.786,-0.183l88.229,352.435l-415.86,0l90.821,-362.813c-1.863,0.521 -3.79,0.834 -5.742,0.834l-1.303,0l-91.927,361.979l-36.693,0c0,0 14.271,77.552 252.774,77.552c238.502,0 252.773,-77.552 252.773,-77.552l-36.692,0Z" style="fill:#fff;fill-rule:nonzero;"/><path d="M4948.11,271.42c16.315,-0 28.541,-12.24 28.541,-28.568c0,-16.328 -12.226,-28.568 -28.541,-28.568l-20.377,0c-16.315,0 -28.542,12.24 -28.542,28.568c-0,16.328 12.227,28.568 28.542,28.568l20.377,-0Zm-1027.41,-57.136l-20.39,0c-16.303,0 -28.529,12.24 -28.529,28.568c0,16.328 12.226,28.568 28.529,28.568l20.39,-0c16.302,-0 28.542,-12.24 28.542,-28.568c-0,-16.328 -12.24,-28.568 -28.542,-28.568Zm1062.61,227.474c-2.709,-1.185 -5.43,-2.305 -8.177,-3.32l-37.214,-148.646l-36.732,146.744c-2.865,1.185 -5.651,2.592 -8.372,4.155l41.028,-163.138l-6.106,-0c-18.347,-0 -34.662,-14.284 -34.662,-34.701c0,-16.328 12.24,-30.612 28.541,-34.688c-16.301,-2.044 -40.768,0 -40.768,36.732l-71.354,0c0,0 -189.583,-132.656 -224.231,0l-99.896,0l-0,77.552l20.39,0l0,16.328c0,22.448 -30.586,16.329 -30.586,16.329l0,302.044c48.932,104.075 -10.182,151.015 -10.182,151.015l0,389.805c26.497,40.821 30.573,116.329 30.573,116.329l38.737,-0l34.649,128.567l-289.467,-0l34.649,-128.567l38.736,-0c0,-0 2.044,-75.508 30.574,-116.329l-0,-391.836c-0,-0 -61.146,-44.909 -10.182,-151.029l-0,-299.999c-0,-0 -30.586,8.164 -30.586,-16.329l-0,-16.328l20.39,0l-0,-77.552l-99.883,0c-34.661,-132.656 -224.245,0 -224.245,0l-71.341,0c0,-36.732 -24.466,-38.776 -40.768,-36.732c16.302,4.076 28.529,18.36 28.529,34.688c-0,18.372 -14.271,34.701 -34.649,34.701l-6.119,-0l44.218,175.794c-2.292,0.599 -4.583,1.25 -6.875,1.888l-41.419,-165.443l-47.513,189.804c-2.032,0.378 -4.062,0.743 -6.107,1.081l51.589,-203.124l-6.12,-0c-18.347,-0 -34.662,-14.284 -34.662,-34.701c0,-18.359 14.271,-34.688 34.662,-34.688l14.271,0c38.724,-36.744 63.19,6.12 63.19,6.12l59.114,0c222.201,-157.149 248.698,0 248.698,0l77.461,0c0,0 -4.075,-83.672 24.466,-102.044c0,0 14.271,-89.792 -50.964,-89.792l-38.723,-0l-0,-22.448l250.729,0l0,22.448l-38.724,-0c-67.279,-0 -50.963,89.792 -50.963,89.792c28.528,18.372 24.453,102.044 24.453,102.044l77.46,0c0,0 26.511,-157.149 248.711,0l59.115,0c-0,0 26.498,-44.896 63.19,-6.12l14.271,0c18.346,0 34.661,14.285 34.661,34.688c0,18.372 -14.27,34.701 -34.661,34.701l-6.107,-0l41.303,164.205Z" style="fill:#fff;fill-rule:nonzero;"/><path d="M5154.01,1120.42l-88.645,-352.396c-2.735,0.118 -5.43,-0.26 -8.008,-1.133l88.489,353.529l-415.859,0l94.414,-377.122c-1.536,0.299 -3.151,0.468 -4.896,0.468c-0.989,0 -1.953,-0.065 -2.89,-0.169l-94.779,376.823l-36.693,0c-0,0 14.271,77.552 252.774,77.552c238.515,0 252.786,-77.552 252.786,-77.552l-36.693,0Z" style="fill:#fff;fill-rule:nonzero;"/><path d="M4991.54,682.917l4.454,24.271l15.299,-0c5.104,-0 19.766,-0 89.896,85.586c1.914,2.552 3.19,5.742 2.552,9.57c-0,3.841 -1.914,7.031 -5.104,8.945l-1.276,0.638l26.145,35.131c5.105,7.018 7.019,15.963 5.743,24.271c-2.553,15.325 -16.576,26.822 -32.527,26.822c-10.194,0 -20.39,-5.117 -26.77,-13.411l-23.594,-31.94c0,11.498 -4.453,22.357 -11.471,30.013l0,0.638l11.471,89.414c0.638,3.841 -0.638,7.031 -3.177,10.221c-2.552,3.19 -5.742,4.467 -9.57,4.467l-0,81.758c-0,21.705 -17.214,39.595 -38.255,39.595c-21.029,0 -38.243,-17.89 -38.243,-39.595l0,-83.035c-1.913,-1.276 -3.828,-3.19 -5.103,-5.104l-14.024,-24.27l-14.024,24.27c-1.276,2.553 -3.19,3.828 -5.104,5.104l0,83.035c0,21.705 -17.214,39.595 -38.255,39.595c-21.042,0 -38.255,-17.89 -38.255,-39.595l0,-81.758c-3.815,-0 -7.005,-1.277 -9.557,-4.467c-2.553,-3.19 -3.19,-7.018 -2.553,-10.859l17.214,-84.297c-9.558,-8.307 -15.938,-21.081 -16.576,-35.768c0,0 -0.638,0 -1.275,-0.638l-2.553,-1.915l-26.132,35.131c-6.381,8.932 -16.576,13.411 -26.784,13.411c-7.006,0 -13.386,-1.927 -19.128,-5.755c-7.018,-5.104 -12.109,-12.773 -13.385,-21.067c-1.277,-8.946 0.638,-17.253 5.729,-24.271l26.146,-35.131l-1.277,-0.638c-2.539,-2.552 -4.453,-5.104 -5.091,-8.945c-0.638,-3.19 0,-7.018 2.552,-9.57c70.131,-85.586 84.154,-85.586 89.883,-85.586l15.299,-0l5.105,-26.823c-44.622,-22.357 -75.221,-67.695 -75.221,-120.703c-0,-74.088 59.922,-134.115 133.88,-134.115c73.945,-0 133.88,60.027 133.88,134.115c-0,54.921 -33.151,102.825 -80.964,123.255Zm-159.387,-143.06l0.638,-0c8.919,1.276 15.937,-0 22.317,-4.466c15.3,-10.222 19.128,-35.13 19.128,-35.13c0.624,-5.743 5.091,-9.584 10.195,-10.86c5.104,-1.276 10.833,1.276 13.385,5.755c0,0 10.834,17.24 29.323,20.431c14.037,2.564 30.612,-3.191 48.464,-17.241c5.729,-4.465 13.385,-3.828 17.852,1.915c1.262,1.914 1.901,3.19 2.539,5.117c0.638,3.19 8.932,31.927 47.825,28.099c-11.485,-47.266 -54.193,-82.396 -105.195,-82.396c-52.917,-0 -96.914,38.32 -106.471,88.776Zm-26.772,294.428l-11.484,-8.308l-26.133,35.768c-1.913,3.19 -1.276,7.018 1.914,8.933c3.177,2.564 7.644,1.927 10.196,-1.277l25.507,-35.116Zm88.607,153.268l-25.494,-0l-0,81.758c-0,7.655 5.742,14.049 12.747,14.049c7.019,-0 12.747,-6.394 12.747,-14.049l-0,-81.758Zm114.766,-0l-25.508,-0l0,81.758c0,7.655 5.742,14.049 12.748,14.049c7.018,-0 12.76,-6.394 12.76,-14.049l-0,-81.758Zm10.834,-25.548l-8.295,-63.854l-140.885,0l-12.122,63.854l47.825,0l22.305,-36.393c1.913,-3.84 6.38,-6.393 10.846,-6.393c4.453,-0 8.281,2.553 10.833,6.393l21.042,36.393l48.451,0Zm57.382,-136.028l-11.484,8.308l25.507,35.116c3.828,5.118 12.11,2.566 13.386,-2.552c-0,-1.276 -0,-2.551 -1.276,-4.466c0,0 -26.133,-35.768 -26.133,-36.406Zm-66.94,-94.518l-23.594,-0c-6.38,-0 -11.471,-4.467 -12.747,-10.221l-5.742,-31.29c-8.919,1.914 -18.49,3.19 -28.048,3.19c-12.122,0 -23.593,-1.276 -34.426,-4.466l-6.38,33.203c-1.277,5.755 -6.381,10.222 -12.748,10.222l-24.869,-0c-9.558,5.104 -37.618,35.768 -63.113,65.781l33.151,23.633l3.829,-3.841l24.856,-45.339c3.19,-6.38 10.847,-8.308 17.214,-5.104c6.38,3.19 8.294,10.846 5.104,17.239l-26.771,47.904l0,18.516c0,12.135 8.282,22.356 17.852,22.356l130.69,0c9.557,0 17.852,-10.221 17.852,-22.356l-0,-7.031l-33.152,-59.389c-3.19,-5.754 -1.275,-14.049 5.091,-17.239c5.743,-3.204 14.037,-1.276 17.214,5.104l28.06,50.455l33.789,-24.27c-25.508,-30.013 -54.192,-60.677 -63.112,-65.781l0,-1.276Zm37.604,-171.797l0,-0.638c-3.815,0.638 -7.005,0.638 -10.195,0.638c-31.237,0 -49.726,-16.614 -59.297,-31.94c-19.752,12.135 -38.243,16.615 -56.094,13.411c-12.76,-2.552 -22.317,-8.294 -29.974,-14.049c-4.453,10.221 -11.471,21.718 -22.305,29.375c-8.932,6.393 -19.127,9.583 -30.598,9.583c-2.552,0 -5.743,0 -8.933,-0.638c3.19,57.487 50.365,102.825 108.386,102.825c59.922,0 108.372,-48.541 109.01,-108.567Z" style="fill:#fff;fill-rule:nonzero;"/><path d="M4913.11,585.209c0,-7.031 -5.729,-12.774 -12.747,-12.774l-25.509,0c-7.004,0 -12.747,5.743 -12.747,12.774c0,7.018 5.743,12.773 12.747,12.773l25.509,0c7.018,0 12.747,-5.755 12.747,-12.773Z" style="fill:#fff;fill-rule:nonzero;"/><path d="M5002.37,572.435l-25.495,0c-7.018,0 -12.76,5.743 -12.76,12.774c-0,7.018 5.742,12.773 12.76,12.773l25.495,0c7.018,0 12.747,-5.755 12.747,-12.773c0,-7.031 -5.729,-12.774 -12.747,-12.774Z" style="fill:#fff;fill-rule:nonzero;"/><path d="M4951.37,615.86l-5.742,3.19c-3.815,1.914 -10.833,1.914 -14.661,-0l-5.104,-3.19c-6.368,-3.19 -14.024,-1.277 -17.214,4.466c-3.177,6.393 -1.263,14.049 4.466,17.252l5.742,3.19c5.742,3.191 12.748,5.105 19.766,5.105c7.005,-0 14.023,-1.914 19.766,-5.105l5.729,-3.19c6.38,-3.203 8.294,-11.497 4.465,-17.252c-3.19,-6.381 -10.833,-8.294 -17.213,-4.466Z" style="fill:#fff;fill-rule:nonzero;"/><path d="M3979.77,604.506l-25.495,-0c-7.019,-0 -12.76,5.741 -12.76,12.773c-0,7.018 5.741,12.773 12.76,12.773l25.495,0c7.018,0 12.747,-5.755 12.747,-12.773c0,-7.032 -5.729,-12.773 -12.747,-12.773Z" style="fill:#fff;fill-rule:nonzero;"/><path d="M3965.74,723.294c1.276,5.743 3.191,14.05 4.466,21.706l32.513,0c37.617,0 67.578,28.75 67.578,63.868c0,3.202 -1.276,6.392 -3.19,8.307l22.318,30.013c5.105,7.031 7.006,15.964 5.729,24.271c-2.539,15.325 -16.575,26.823 -32.513,26.823c-10.195,-0 -20.39,-5.105 -26.77,-13.412l-47.175,-63.229l-0.638,0c9.558,21.08 22.304,43.438 36.979,66.419c12.747,19.805 15.937,37.045 9.557,51.732c-4.466,11.497 -14.661,19.805 -28.685,24.271l0,105.378c0,21.718 -17.213,39.596 -38.255,39.596c-21.042,-0 -38.255,-17.878 -38.255,-39.596l0,-107.93c-12.109,-1.914 -26.133,-1.914 -38.255,0l0,107.93c0,21.718 -17.214,39.596 -38.242,39.596c-21.042,-0 -38.255,-17.878 -38.255,-39.596l-0,-105.378c-14.024,-5.105 -24.232,-13.412 -28.685,-24.271c-6.381,-14.687 -3.19,-31.927 9.556,-51.732c14.662,-22.981 27.41,-45.339 36.98,-66.419l-0.638,0l-47.174,63.229c-6.381,8.945 -16.576,13.412 -26.784,13.412c-15.938,-0 -29.961,-11.498 -32.514,-26.823c-1.275,-8.946 0.639,-17.24 5.743,-24.271l22.304,-30.013c-1.901,-2.552 -3.176,-5.105 -3.176,-8.307c-0,-35.118 29.96,-63.868 68.215,-64.505l32.513,-0c1.915,-10.209 4.454,-21.707 5.73,-26.186c-47.175,-21.705 -79.688,-69.609 -80.326,-124.531c-6.38,0 -12.109,0.639 -17.851,2.552c-15.3,5.742 -27.409,21.081 -33.152,41.511c-1.913,6.393 -8.281,13.411 -15.937,12.773c-7.018,-0.638 -12.109,-6.38 -12.109,-12.773l-0,-38.321c-0,-52.369 42.07,-95.156 94.986,-94.518l14.662,0c2.552,-3.19 5.104,-5.742 7.657,-8.945c49.088,-52.37 133.88,-58.112 189.987,-12.774c3.827,2.566 18.489,21.719 21.679,21.719c27.409,0 52.266,3.829 73.946,22.357c21.041,17.877 33.788,44.7 33.788,72.161l0,38.321c0,5.117 -3.828,10.221 -8.281,12.135c-16.575,7.032 -22.317,-22.356 -28.06,-31.289c-5.729,-9.583 -14.023,-18.529 -24.857,-22.357c-5.103,-2.552 -10.846,-2.552 -16.575,-2.552c-0.638,59.388 -38.894,110.482 -90.534,129.648Zm-175.325,-193.515c-34.427,0.638 -62.474,26.185 -66.94,59.401c7.656,-7.669 16.575,-13.425 26.146,-17.253c7.004,-2.552 14.022,-3.828 21.028,-3.828l7.018,0c2.552,-13.411 6.38,-26.185 12.748,-38.32Zm251.836,0.638c5.729,12.135 9.557,24.909 12.109,38.32l6.367,0c7.019,0 14.037,1.277 21.042,3.828c9.57,3.19 18.49,9.584 26.145,17.253c-4.465,-33.216 -32.512,-58.125 -65.663,-59.401Zm-113.49,-38.32c1.276,18.528 7.656,43.425 35.703,53.007c35.703,12.136 45.898,27.461 52.279,37.683c3.828,7.031 5.104,8.307 14.023,8.945c0,-58.763 -44.622,-107.292 -101.367,-114.323c-0.638,1.914 -0.638,3.19 -0.638,5.104l0,9.584Zm-127.5,99.635c8.919,-0.638 9.558,-2.552 14.023,-8.945c6.368,-9.583 16.576,-24.909 52.279,-37.683c27.409,-9.582 34.427,-33.203 35.703,-51.731l0,-11.497c-0.638,-1.915 -0.638,-3.191 -0.638,-4.467c-56.744,7.031 -101.367,55.56 -101.367,114.323Zm-1.914,229.271l-17.852,0l-29.961,40.872c-1.913,3.204 -0.638,7.032 1.901,8.946c3.19,2.552 7.657,1.913 10.208,-1.277l35.704,-48.541Zm65.664,146.25c-8.294,1.276 -17.214,1.927 -25.507,1.276l-0,100.912c-0,7.669 5.741,14.049 12.76,14.049c7.005,0 12.747,-6.38 12.747,-14.049l0,-102.188Zm114.753,1.927l-5.091,0c-7.019,0 -13.399,-0.651 -20.404,-1.927l-0,102.188c-0,7.669 5.729,14.049 12.747,14.049c7.018,0 12.748,-6.38 12.748,-14.049l-0,-100.261Zm58.02,-147.539l-17.851,0l35.703,48.542c1.914,3.19 7.005,3.828 10.195,1.276c3.19,-1.915 3.828,-5.743 1.915,-8.946l-29.962,-40.872Zm-79.062,-51.094c-6.367,0 -11.472,-3.828 -12.747,-10.208c-1.276,-8.307 -4.466,-21.719 -6.367,-30.026c-7.657,1.276 -15.313,1.914 -23.594,1.914c-12.11,0 -24.232,-1.276 -35.704,-4.466c-1.913,8.307 -5.103,23.633 -7.018,32.578c-1.263,5.742 -7.005,10.208 -12.747,10.208l-42.708,0c-18.49,0 -33.79,10.86 -39.532,25.547l70.769,-0c2.552,-0 4.466,-0 6.367,1.276c6.38,2.566 9.57,10.221 7.018,16.615c-10.833,27.461 -26.771,56.836 -46.537,88.125c-7.656,12.135 -10.208,21.718 -7.656,28.112c1.914,5.104 9.571,9.57 20.404,11.484c13.385,3.203 29.961,1.927 44.622,-2.552c21.042,-6.38 51.003,-6.38 71.407,-0c14.661,3.842 31.236,5.117 44.635,2.552c10.833,-1.914 17.852,-6.38 20.391,-11.484c2.552,-6.394 -0,-15.977 -7.644,-28.112c-19.766,-31.289 -35.703,-60.664 -46.536,-88.125c-2.552,-6.394 0.638,-14.049 7.005,-16.615c2.552,-1.276 4.466,-1.276 7.018,-1.276l71.406,-0c-5.742,-14.687 -21.041,-25.547 -39.531,-25.547l-42.721,0Zm70.13,-153.268c-19.127,-1.914 -25.495,-10.222 -32.513,-20.443c-5.729,-8.307 -12.109,-17.877 -39.518,-27.461c-19.765,-7.031 -31.888,-18.515 -40.169,-31.927c-8.295,13.412 -21.042,25.547 -40.17,31.927c-28.047,9.584 -34.427,19.154 -39.518,27.461c-6.38,10.86 -13.398,18.529 -32.526,20.443c11.484,51.094 56.745,89.401 111.576,89.401c54.83,-0 100.091,-38.307 112.838,-89.401Z" style="fill:#fff;fill-rule:nonzero;"/><path d="M3890.51,617.279c0,-7.032 -5.729,-12.773 -12.747,-12.773l-25.495,-0c-7.019,-0 -12.76,5.741 -12.76,12.773c-0,7.018 5.741,12.773 12.76,12.773l25.495,0c7.018,0 12.747,-5.755 12.747,-12.773Z" style="fill:#fff;fill-rule:nonzero;"/><path d="M3928.76,647.93l-5.729,3.19c-3.828,1.914 -10.847,1.914 -14.675,0l-5.091,-3.19c-6.38,-3.19 -14.024,-1.276 -17.214,4.466c-3.19,5.755 -1.913,14.05 4.454,17.253l5.742,3.19c5.742,3.19 12.747,5.104 19.766,5.104c7.018,0 14.023,-1.914 19.765,-5.104l5.73,-3.19c6.38,-3.203 8.293,-11.498 4.466,-17.253c-3.19,-6.38 -10.834,-8.294 -17.214,-4.466Z" style="fill:#fff;fill-rule:nonzero;"/></g></svg>