<?xml version="1.0" encoding="UTF-8" standalone="no"?><!DOCTYPE svg PUBLIC "-//W3C//DTD SVG 1.1//EN" "http://www.w3.org/Graphics/SVG/1.1/DTD/svg11.dtd"><svg width="100%" height="100%" viewBox="0 0 12537 3821" version="1.1" xmlns="http://www.w3.org/2000/svg" xmlns:xlink="http://www.w3.org/1999/xlink" xml:space="preserve" xmlns:serif="http://www.serif.com/" style="fill-rule:evenodd;clip-rule:evenodd;stroke-linejoin:round;stroke-miterlimit:2;"><g><path d="M4554.17,2462.6l-0,146.224l174.987,-0l0,19.531l-174.987,0l-0,253.387l-36.497,-0l-0,-438.673l334.999,0l4.897,19.531l-303.399,0Z" style="fill:#fff;fill-rule:nonzero;"/><path d="M4519.99,2879.4l31.875,0l0,-253.385l174.987,0l0,-14.844l-174.987,0l0,-150.911l302.748,0l-3.738,-14.974l-330.885,0l0,434.114Zm36.485,4.688l-41.107,-0l-0,-443.359l339.115,0l6.041,24.219l-304.049,-0l-0,141.536l174.987,0l-0,24.219l-174.987,-0l-0,253.385Z" style="fill:#fff;fill-rule:nonzero;"/><path d="M5321.15,2862.21l-4.818,19.532l-335.013,-0l0,-438.673l335.013,0l4.818,19.531l-303.373,0l0,146.224l175,-0l0,19.531l-175,0l0,233.855l303.373,0Z" style="fill:#fff;fill-rule:nonzero;"/><path d="M4983.66,2879.4l330.846,0l3.659,-14.974l-302.604,-0l-0,-238.411l174.87,0l-0,-14.844l-174.87,0l-0,-150.911l302.604,0l-3.659,-14.974l-330.846,0l-0,434.114Zm334.505,4.688l-339.193,-0l0,-443.359l339.193,0l5.976,24.219l-304.022,-0l-0,141.536l175,0l-0,24.219l-175,-0l-0,229.166l304.022,0l-5.976,24.219Z" style="fill:#fff;fill-rule:nonzero;"/><path d="M5612.69,2708.18c11.198,-0 21.876,-0.78 31.902,-2.343c16.926,-2.475 32.161,-7.162 45.573,-14.063c21.483,-10.807 37.629,-25.521 48.568,-43.881c10.285,-17.317 15.754,-36.718 16.406,-58.072c-0,-1.171 0.13,-2.214 0.13,-3.385c0,-0.131 -0.13,-0.261 -0.13,-0.261c-0,-0.131 0.13,-0.261 0.13,-0.391c0,-1.172 -0.13,-2.213 -0.13,-3.384c-0.652,-21.354 -6.121,-40.755 -16.406,-58.074c-10.939,-18.36 -27.085,-33.072 -48.568,-43.88c-13.412,-6.902 -28.647,-11.589 -45.573,-14.062c-4.167,-0.782 -8.464,-1.432 -12.762,-1.954c0.913,0.131 1.693,0.261 2.475,0.391c-1.693,-0.26 -3.516,-0.521 -5.339,-0.651c-3.125,-0.391 -6.38,-0.522 -9.635,-0.65l-134.374,-0l-0,172.265l0.13,-0l0,5.989c25.52,21.354 51.432,44.921 75,66.667l52.603,-0.261Zm236.589,141.276c0,-0 -25.781,32.293 -75.13,32.293c-107.031,-0 -216.406,-147.658 -289.062,-209.637l0,209.637l-36.589,-0l-0,-438.673l200.782,0c26.431,0 50.91,6.25 73.307,19.14c22.526,12.762 40.234,30.209 53.255,52.214c13.02,21.876 19.531,45.834 19.531,71.745c-0,25.781 -6.511,49.74 -19.531,71.614c-13.021,22.006 -30.729,39.454 -53.255,52.214c-22.397,12.76 -46.876,19.14 -73.307,19.14l-53.646,1.043l-11.98,0c17.187,15.885 32.291,29.817 43.75,39.582c51.303,43.23 100.651,89.064 172.396,90.235c22.266,0.261 49.479,-10.547 49.479,-10.547Z" style="fill:#fff;fill-rule:nonzero;"/><path d="M5487.31,2640.6c25.898,21.743 51.692,45.182 73.698,65.495l51.692,-0.261c10.937,0 21.615,-0.782 31.511,-2.214c16.667,-2.473 31.77,-7.162 44.921,-13.801c20.964,-10.809 36.981,-25.261 47.657,-43.1c10.026,-16.797 15.365,-35.938 16.016,-56.901l-0,-1.432c0.13,-0.652 0.13,-1.302 0.13,-1.953l-0,-0.652c-0,-0.65 -0,-1.172 -0.13,-1.822l-0,-1.562c-0.651,-20.965 -5.99,-40.105 -16.016,-56.903c-10.547,-17.838 -26.563,-32.421 -47.657,-43.098c-13.151,-6.641 -28.254,-11.328 -44.921,-13.803c-3.385,-0.65 -6.771,-1.171 -10.156,-1.562l-0,0.13c-1.563,-0.26 -3.125,-0.52 -4.688,-0.65l-0.651,-0.13c-3.125,-0.261 -6.25,-0.522 -9.505,-0.522l-131.901,0l-0,174.741Zm71.875,70.052l-0.652,-0.522c-22.265,-20.572 -48.71,-44.662 -74.998,-66.666l-0.782,-0.652l-0.131,-181.64l136.719,0c3.386,0.13 6.641,0.391 9.896,0.652l0.782,0.13c0.65,0.129 1.432,0.129 2.082,0.259l0,-0.13c4.298,0.521 8.594,1.173 12.891,1.953c17.058,2.605 32.552,7.423 46.224,14.323c21.876,11.069 38.541,26.172 49.609,44.792c10.417,17.448 15.886,37.37 16.536,59.116l0.131,1.432l-0,4.948l-0.131,1.301c-0.519,21.746 -6.119,41.666 -16.536,59.115c-11.198,18.619 -27.733,33.724 -49.609,44.791c-13.542,6.902 -29.166,11.719 -46.355,14.323c-10.155,1.562 -20.963,2.344 -32.161,2.344l-53.515,0.131Zm-108.333,168.749l31.901,0l-0,-212.369l3.776,3.255c18.23,15.495 38.932,36.588 60.806,58.984c65.756,66.797 147.527,150.13 226.824,150.13c33.204,0 55.729,-15.104 66.275,-24.349c-10.026,3.125 -26.041,7.422 -40.624,7.162c-68.099,-1.042 -117.058,-42.578 -164.323,-82.683l-9.505,-8.073c-11.85,-10.025 -27.474,-24.479 -43.88,-39.582l-4.297,-3.907l17.839,-0l53.515,-1.041c26.042,-0 50.391,-6.38 72.395,-18.881c21.876,-12.5 39.584,-29.817 52.344,-51.432c12.76,-21.485 19.14,-45.182 19.14,-70.574c0,-25.259 -6.51,-48.958 -19.14,-70.441c-12.76,-21.615 -30.338,-38.934 -52.344,-51.433c-22.004,-12.5 -46.353,-18.88 -72.264,-18.88l-198.438,0l0,434.114Zm36.458,4.688l-41.145,-0l-0,-443.359l203.125,0c26.691,0 51.822,6.511 74.478,19.401c22.656,12.891 40.886,30.859 54.167,53.124c13.021,22.135 19.662,46.745 19.792,72.786c0,26.172 -6.771,50.782 -19.792,72.917c-13.281,22.397 -31.511,40.235 -54.167,53.126c-22.656,12.89 -47.787,19.401 -74.478,19.401l-59.637,1.041c14.714,13.672 28.517,26.302 39.323,35.418l9.505,8.073c48.828,41.405 94.923,80.598 161.459,81.639l0.912,-0c21.353,-0 47.266,-10.285 47.525,-10.285l8.203,-3.256l-5.468,6.771c-1.042,1.432 -27.084,33.072 -76.953,33.072c-81.25,0 -163.802,-83.984 -230.079,-151.562c-20.312,-20.573 -39.582,-40.234 -56.77,-55.339l-0,207.032Z" style="fill:#fff;fill-rule:nonzero;"/><path d="M6434.05,2443.07l0,438.673l-15.235,-0c0,-0 -27.473,-119.793 -199.999,-215.626c-107.422,-57.942 -168.491,-111.588 -202.084,-159.766l0,375.392l-19.531,-0l-0,-438.803l19.922,-0c19.271,48.958 77.082,119.662 209.505,193.75c115.234,64.454 165.755,124.089 187.891,163.151l0,-356.771l19.531,0Z" style="fill:#fff;fill-rule:nonzero;"/><path d="M6420.51,2879.4l11.198,0l-0,-434.114l-14.974,0l-0,363.282l-4.297,-7.553c-21.745,-38.542 -71.875,-97.917 -186.979,-162.239c-147.396,-82.552 -194.792,-156.12 -209.895,-193.49l-16.016,0l0,434.114l14.973,0l-0,-380.468l4.167,5.989c37.24,53.776 104.948,107.291 201.172,159.114c160.157,88.933 196.355,200 200.651,215.365Zm15.885,4.688l-19.401,-0l-0.391,-1.824c-0.389,-1.171 -29.427,-119.921 -198.957,-214.061c-93.36,-50.391 -160.026,-102.344 -198.567,-154.688l-0,370.573l-24.221,-0l0,-443.359l23.829,0l0.52,1.432c14.324,36.327 60.417,109.635 208.594,192.577c108.854,60.938 160.287,117.709 184.376,156.641l-0,-350.65l24.218,0l0,443.359Z" style="fill:#fff;fill-rule:nonzero;"/><path d="M6911,2746.59l-112.111,-251.824l-125.911,251.824l238.022,0Zm104.295,135.157l-40.364,-0l-55.469,-119.793l-228.254,0c-16.798,0 -32.293,9.896 -39.975,25.392l-44.921,94.401l-22.787,-0l219.401,-454.819l5.078,0l157.552,345.834l31.12,68.229c0,0 0,0.131 0.13,0.131l18.489,40.625Z" style="fill:#fff;fill-rule:nonzero;"/><path d="M6676.76,2744.24l230.731,-0l-108.726,-244.141l-122.005,244.141Zm237.891,4.557l-245.312,-0l129.687,-259.504l115.625,259.504Zm61.849,130.599l35.157,0l-205.208,-450.129l-2.084,-0l-217.188,450.129l17.579,0l44.4,-93.099c8.073,-16.406 24.22,-26.561 42.059,-26.561l229.686,-0l0.652,1.301l54.947,118.359Zm42.318,4.688l-45.312,-0l-0.65,-1.433l-54.819,-118.358l-226.822,-0c-16.017,-0 -30.6,9.244 -37.891,24.088l-45.573,95.703l-27.995,-0l1.693,-3.386l220.052,-456.12l7.942,-0l209.375,459.506Z" style="fill:#fff;fill-rule:nonzero;"/><path d="M7601.24,2443.07l-0,438.673l-15.234,-0c0,-0 -27.474,-119.793 -200,-215.626c-107.422,-57.942 -168.62,-111.588 -202.083,-159.766l-0,375.392l-19.532,-0l0,-438.803l19.792,-0c19.271,48.958 77.213,119.662 209.636,193.75c115.234,64.454 165.624,124.089 187.889,163.151l0,-356.771l19.532,0Z" style="fill:#fff;fill-rule:nonzero;"/><path d="M7587.7,2879.4l11.198,0l-0,-434.114l-14.975,0l0,363.282l-4.296,-7.553c-21.745,-38.542 -71.875,-97.917 -186.979,-162.239c-147.397,-82.552 -194.793,-156.12 -210.026,-193.49l-15.887,0l0,434.114l14.975,0l-0,-380.468l4.167,5.989c37.24,53.776 104.947,107.291 201.171,159.114c160.157,88.933 196.354,200 200.652,215.365Zm15.885,4.688l-19.401,-0l-0.521,-1.824c-0.261,-1.171 -29.297,-119.921 -198.829,-214.061c-93.358,-50.391 -160.025,-102.344 -198.567,-154.688l-0,370.573l-24.219,-0l0,-443.359l23.829,0l0.52,1.432c14.324,36.327 60.417,109.635 208.464,192.577c108.984,60.938 160.287,117.709 184.505,156.641l0,-350.65l24.219,0l-0,443.359Z" style="fill:#fff;fill-rule:nonzero;"/><path d="M8183.66,2662.34c-0,-36.457 -6.902,-69.921 -20.574,-100.129c-13.671,-30.209 -34.245,-54.298 -61.328,-72.136c-27.343,-17.838 -59.895,-26.952 -97.786,-27.343l-222.137,-0l0,399.349l221.355,0c38.542,0 71.094,-8.985 98.177,-26.824c26.954,-17.838 47.396,-42.057 61.328,-72.395c13.933,-30.469 20.965,-63.932 20.965,-100.522Zm36.457,0c0,39.715 -8.723,76.174 -26.042,109.376c-17.317,33.203 -42.837,59.765 -76.432,79.557c-33.593,19.922 -73.437,30.079 -119.4,30.47l-252.995,-0l-0,-438.673l252.995,0c47.264,0 87.63,9.766 120.963,29.427c33.464,19.531 58.593,46.094 75.521,79.557c16.926,33.465 25.39,70.183 25.39,110.286Z" style="fill:#fff;fill-rule:nonzero;"/><path d="M7784.05,2859.74l219.14,-0c37.891,-0 70.443,-8.854 96.875,-26.433c26.433,-17.447 46.875,-41.536 60.548,-71.484c13.801,-29.947 20.702,-63.412 20.702,-99.48c0,-35.937 -6.771,-69.27 -20.311,-99.088c-13.412,-29.686 -33.856,-53.646 -60.548,-71.224c-26.823,-17.577 -59.245,-26.693 -96.484,-27.082l-219.922,-0l-0,394.791Zm219.14,4.557l-223.697,-0l-0,-403.907l224.479,0c38.151,0.391 71.484,9.766 98.958,27.735c27.473,18.099 48.437,42.708 62.24,73.177c13.801,30.339 20.833,64.454 20.833,101.041c-0,36.72 -7.161,70.835 -21.224,101.433c-14.062,30.729 -35.026,55.469 -62.11,73.438c-27.344,17.969 -60.676,27.083 -99.479,27.083Zm-255.598,15.104l250.651,0c45.312,-0.391 85.155,-10.546 118.229,-30.077c33.073,-19.531 58.594,-45.964 75.65,-78.646c17.058,-32.813 25.783,-69.272 25.783,-108.335c-0,-39.582 -8.464,-76.302 -25.262,-109.243c-16.536,-32.813 -41.666,-59.245 -74.609,-78.646c-32.813,-19.401 -73.177,-29.167 -119.791,-29.167l-250.651,0l0,434.114Zm250.651,4.688l-255.209,-0l-0,-443.359l255.209,0c47.525,0 88.541,10.025 122.134,29.686c33.725,19.792 59.376,47.005 76.434,80.6c17.056,33.593 25.651,71.093 25.651,111.327c-0,39.845 -8.855,76.954 -26.303,110.418c-17.447,33.463 -43.489,60.546 -77.344,80.599c-33.854,19.922 -74.349,30.207 -120.572,30.729Z" style="fill:#fff;fill-rule:nonzero;"/><path d="M8631.44,2746.59l-112.24,-251.824l-125.78,251.824l238.02,0Zm104.166,135.157l-40.233,-0l-55.6,-119.793l-228.254,0c-16.797,0 -32.293,9.896 -39.975,25.392l-44.921,94.401l-22.786,-0l219.4,-454.819l5.079,0l157.552,345.834l31.12,68.229l0.13,0.131l18.488,40.625Z" style="fill:#fff;fill-rule:nonzero;"/><path d="M8397.07,2744.24l230.73,-0l-108.723,-244.141l-122.007,244.141Zm237.891,4.557l-245.312,-0l129.687,-259.504l115.625,259.504Zm61.849,130.599l35.157,0l-205.209,-450.129l-2.083,-0l-217.187,450.129l17.708,0l44.27,-93.099c8.203,-16.406 24.22,-26.561 42.058,-26.561l229.817,-0l0.521,1.301l54.948,118.359Zm42.317,4.688l-45.312,-0l-0.521,-1.433l-54.948,-118.358l-226.822,-0c-16.017,-0 -30.6,9.244 -37.891,24.088l-45.573,95.703l-27.864,-0l1.562,-3.386l220.052,-456.12l7.943,-0l209.374,459.506Z" style="fill:#fff;fill-rule:nonzero;"/><path d="M9413.74,2705.83c16.927,-2.475 32.162,-7.162 45.573,-14.063c21.485,-10.807 37.631,-25.521 48.568,-43.881c10.417,-17.317 15.755,-36.718 16.406,-58.072c0,-1.171 0.131,-2.214 0.131,-3.385c-0,-0.131 -0.131,-0.261 -0.131,-0.261c0,-0.131 0.131,-0.261 0.131,-0.391c-0,-1.172 -0.131,-2.213 -0.131,-3.384c-0.651,-21.354 -5.989,-40.755 -16.406,-58.074c-10.807,-18.36 -27.083,-33.072 -48.568,-43.88c-13.411,-6.902 -28.646,-11.589 -45.573,-14.062c-4.426,-0.913 -8.854,-1.563 -13.281,-1.954c1.041,0.131 2.084,0.261 2.994,0.391c-2.083,-0.26 -4.296,-0.521 -6.51,-0.651c-2.864,-0.261 -5.598,-0.522 -8.464,-0.65l-134.374,-0l-0,172.265l0.13,-0l0,72.395l127.603,-0c5.339,-0 10.418,-0.261 15.496,-0.52c4.948,-0.391 9.766,-0.912 14.583,-1.562c0.522,-0.131 1.172,-0.131 1.823,-0.261Zm167.709,169.66l-0,6.252l-34.506,-0c-27.082,-0 -52.735,-12.501 -69.53,-33.725l-93.751,-118.881l-129.427,0l0,152.606l-36.589,-0l-0,-438.673l200.782,0c26.432,0 50.912,6.25 73.437,19.14c22.396,12.762 40.104,30.209 53.125,52.214c13.021,21.876 19.531,45.834 19.531,71.745c0,25.781 -6.51,49.74 -19.531,71.614c-13.021,22.006 -30.729,39.454 -53.125,52.214c-19.27,10.937 -39.974,17.188 -62.109,18.751l94.401,119.009c13.803,17.579 35.025,27.734 57.292,27.734Z" style="fill:#fff;fill-rule:nonzero;"/><path d="M9256.44,2705.83l125.39,0c4.948,0 10.027,-0.13 15.366,-0.521c4.948,-0.391 9.765,-0.911 14.322,-1.563l0.913,0c0.259,0 0.519,-0.13 0.91,-0.13c16.667,-2.473 31.772,-7.162 44.922,-13.801c20.965,-10.809 37.11,-25.261 47.656,-43.1c10.027,-16.797 15.366,-35.938 16.016,-56.901l-0,-1.432c0.13,-0.652 0.13,-1.302 0.13,-1.953l0,-0.652c0,-0.65 0,-1.302 -0.13,-1.952l-0,-1.432c-0.65,-20.965 -5.989,-40.105 -16.016,-56.903c-10.546,-17.838 -26.561,-32.421 -47.656,-43.098c-13.15,-6.641 -28.255,-11.328 -44.922,-13.803c-3.255,-0.65 -6.64,-1.171 -10.156,-1.562l-0,0.13c-1.432,-0.26 -2.864,-0.389 -4.166,-0.52l-3.777,-0.391c-2.212,-0.13 -4.557,-0.391 -6.901,-0.391l-131.901,0l-0,239.975Zm125.39,4.687l-129.947,0l-0.131,-249.349l136.719,0c2.475,0.13 4.818,0.261 7.162,0.521l3.777,0.39c0.389,-0 0.78,-0 1.302,0.13l-0,-0.13c4.557,0.521 9.114,1.173 13.411,1.953c17.057,2.605 32.683,7.423 46.223,14.323c21.876,11.069 38.543,26.172 49.611,44.792c10.415,17.448 16.015,37.37 16.536,59.116l0.129,1.301l0,5.079l-0.129,1.301c-0.521,21.746 -6.121,41.666 -16.536,59.115c-11.068,18.619 -27.735,33.724 -49.611,44.791c-13.54,6.902 -29.166,11.719 -46.223,14.323c-0.521,-0 -0.912,0.13 -1.303,0.13l-0.65,0.131c-4.687,0.651 -9.635,1.171 -14.714,1.432c-5.469,0.391 -10.547,0.651 -15.626,0.651Zm-129.947,16.407l132.813,-0l0.781,0.78l93.751,118.88c16.406,20.834 41.144,32.813 67.707,32.813l32.161,0l0.131,-1.693c-22.396,-0.651 -42.968,-10.937 -56.901,-28.514l-97.135,-122.397l4.426,-0.391c21.746,-1.562 42.318,-7.681 61.069,-18.359c22.004,-12.5 39.582,-29.817 52.342,-51.432c12.632,-21.485 19.142,-45.182 19.273,-70.574c-0.131,-25.259 -6.641,-48.958 -19.273,-70.441c-12.76,-21.615 -30.468,-38.934 -52.342,-51.433c-22.006,-12.5 -46.355,-18.88 -72.266,-18.88l-198.438,0l0,434.114l31.901,0l-0,-152.473Zm331.77,157.161l-36.718,-0c-27.995,-0 -54.036,-12.63 -71.354,-34.636l-93.099,-117.968l-126.042,-0l-0,152.604l-41.015,-0l0,-443.359l202.995,0c26.822,0 51.822,6.511 74.479,19.401c22.656,12.891 40.885,30.859 54.167,53.124c13.02,22.135 19.661,46.745 19.792,72.786c-0.131,26.172 -6.772,50.782 -19.792,72.917c-13.282,22.267 -31.381,40.235 -54.167,53.126c-18.1,10.287 -37.761,16.537 -58.594,18.619l91.667,115.625c13.542,17.058 33.723,26.824 55.469,26.824l2.343,-0l-0.131,10.937Z" style="fill:#fff;fill-rule:nonzero;"/><path d="M10105.5,2662.99c0,-40.104 -7.553,-76.562 -22.656,-109.245c-14.974,-32.552 -37.239,-58.594 -66.666,-78.125c-29.297,-19.401 -64.715,-29.166 -106.251,-29.166c-41.407,-0 -76.823,9.765 -106.25,29.166c-29.427,19.531 -51.562,45.573 -66.667,78.125c-14.974,32.683 -22.526,69.141 -22.526,109.245c0,39.714 7.552,75.911 22.526,108.593c15.105,32.683 37.24,58.594 66.667,77.865c29.427,19.142 64.843,28.777 106.25,28.777c41.536,-0 76.954,-9.635 106.251,-28.777c29.427,-19.271 51.692,-45.182 66.666,-77.865c15.103,-32.682 22.656,-68.879 22.656,-108.593Zm40.234,0c0,41.927 -9.244,80.209 -27.604,114.973c-18.36,34.897 -45.442,62.631 -81.119,83.334c-35.677,20.703 -77.995,30.99 -127.084,30.99c-49.869,-0 -92.708,-10.287 -128.385,-30.729c-35.677,-20.442 -62.501,-48.177 -80.469,-82.943c-17.969,-34.766 -26.953,-73.307 -26.953,-115.625c0,-42.709 8.984,-81.38 26.953,-116.277c17.968,-34.764 44.792,-62.499 80.469,-83.201c35.677,-20.705 78.516,-31.12 128.385,-31.12c50,-0 92.708,10.415 128.385,31.12c35.677,20.702 62.501,48.437 80.47,83.201c17.969,34.897 26.952,73.568 26.952,116.277Z" style="fill:#fff;fill-rule:nonzero;"/><path d="M9909.96,2448.8c-40.755,-0 -76.041,9.635 -104.948,28.776c-28.906,19.14 -51.041,45.181 -65.755,77.212c-14.974,32.163 -22.395,68.62 -22.395,108.204c-0,39.193 7.421,75.391 22.395,107.683c14.714,32.03 36.718,57.811 65.755,76.823c28.777,18.879 64.193,28.384 104.948,28.384c40.886,0 76.172,-9.505 105.078,-28.384c28.777,-19.012 51.042,-44.793 65.755,-76.823c14.844,-32.292 22.396,-68.49 22.396,-107.683c-0,-39.584 -7.552,-76.041 -22.396,-108.204c-14.713,-32.031 -36.978,-58.072 -65.755,-77.212c-28.906,-19.141 -64.192,-28.776 -105.078,-28.776Zm0,431.77c-41.666,-0 -77.864,-9.896 -107.552,-29.297c-29.688,-19.401 -52.344,-45.834 -67.449,-78.775c-15.103,-32.813 -22.786,-69.661 -22.786,-109.506c-0,-40.234 7.683,-77.343 22.786,-110.156c15.105,-32.812 37.891,-59.506 67.449,-79.167c29.688,-19.532 65.886,-29.428 107.552,-29.428c41.797,0 77.995,9.896 107.552,29.428c29.688,19.661 52.344,46.355 67.447,79.167c15.235,32.813 22.917,69.922 22.917,110.156c-0.13,39.973 -7.812,76.823 -22.917,109.506c-15.103,32.941 -37.759,59.374 -67.447,78.775c-29.557,19.401 -65.755,29.297 -107.552,29.297Zm0,-445.834c-49.219,0 -92.056,10.418 -127.214,30.729c-35.155,20.444 -61.979,48.048 -79.557,82.293c-17.708,34.375 -26.693,73.177 -26.693,115.234c-0,41.796 8.985,80.339 26.693,114.584c17.578,34.245 44.402,61.849 79.557,82.03c35.158,20.183 77.995,30.34 127.214,30.34c48.437,-0 90.755,-10.287 125.912,-30.731c35.156,-20.311 62.108,-48.046 80.207,-82.291c18.1,-34.375 27.345,-72.655 27.345,-113.932c0,-42.057 -8.985,-80.859 -26.693,-115.234c-17.708,-34.245 -44.401,-61.979 -79.557,-82.293c-35.157,-20.311 -77.995,-30.729 -127.214,-30.729Zm0,459.897c-50.13,0 -93.62,-10.417 -129.556,-31.12c-35.938,-20.574 -63.283,-48.828 -81.381,-83.855c-17.968,-34.895 -27.084,-74.218 -27.084,-116.666c0,-42.839 9.116,-82.291 27.084,-117.318c18.098,-35.025 45.443,-63.281 81.381,-84.114c35.936,-20.833 79.426,-31.38 129.556,-31.38c50.13,-0 93.619,10.547 129.557,31.38c35.807,20.703 63.281,49.089 81.38,84.114c17.969,35.027 27.215,74.479 27.215,117.318c-0,42.057 -9.376,81.12 -27.865,116.016c-18.49,35.025 -46.094,63.412 -82.032,84.245c-35.807,20.833 -79.036,31.38 -128.255,31.38Z" style="fill:#fff;fill-rule:nonzero;"/><path d="M10765.6,2443.07l-0,438.673l-36.849,-0l0,-396.486l-194.401,332.553l-13.152,22.526l-0.65,1.171l-9.635,16.407l-10.157,-17.578l-2.214,-3.777l-203.124,-347.525l-0,392.709l-19.662,-0l-0,-438.673l35.157,0l2.343,4.168l2.736,4.817l204.556,349.74l204.296,-347.397l5.209,-8.984l1.432,-2.344l34.115,0Z" style="fill:#fff;fill-rule:nonzero;"/><path d="M10731.1,2879.4l32.163,0l-0,-434.114l-30.47,0l-5.989,10.285l-206.25,350.783l-1.953,-3.386l-208.985,-357.682l-31.64,0l0,434.114l15.105,0l-0,-398.828l217.838,372.787l220.181,-376.694l0,402.735Zm36.72,4.688l-41.407,-0l-0,-390.365l-215.494,368.75l-14.453,-24.739l-198.828,-340.234l-0,386.588l-24.219,-0l0,-443.359l38.932,0l5.598,10.025l202.605,346.486l209.635,-356.511l37.631,0l-0,443.359Z" style="fill:#fff;fill-rule:nonzero;"/><path d="M11240.6,2746.59l-112.239,-251.824l-125.78,251.824l238.019,0Zm104.167,135.157l-40.234,-0l-55.469,-119.793l-228.384,0c-16.797,0 -32.293,9.896 -39.845,25.392l-45.051,94.401l-22.787,-0l219.401,-454.819l5.078,0l157.683,345.834l30.989,68.229l0.131,0.131l18.488,40.625Z" style="fill:#fff;fill-rule:nonzero;"/><path d="M11006.2,2744.24l230.731,-0l-108.595,-244.141l-122.136,244.141Zm237.891,4.557l-245.312,-0l129.687,-259.504l115.625,259.504Zm61.849,130.599l35.157,0l-205.208,-450.129l-2.084,-0l-217.188,450.129l17.71,0l44.4,-93.099c8.073,-16.406 24.089,-26.561 41.928,-26.561l229.816,-0l0.652,1.301l54.817,118.359Zm42.448,4.688l-45.442,-0l-0.522,-1.433l-54.947,-118.358l-226.822,-0c-16.017,-0 -30.47,9.244 -37.891,24.088l-45.573,95.703l-27.865,-0l221.615,-459.506l7.943,-0l0.651,1.434l208.853,458.072Z" style="fill:#fff;fill-rule:nonzero;"/><path d="M11930.7,2443.07l-0,438.673l-15.234,-0c0,-0 -27.474,-119.793 -200,-215.626c-107.421,-57.942 -168.49,-111.588 -201.953,-159.766l0,375.392l-19.661,-0l-0,-438.803l19.922,-0c19.27,48.958 77.082,119.662 209.505,193.75c115.234,64.454 165.755,124.089 187.889,163.151l0,-356.771l19.532,0Z" style="fill:#fff;fill-rule:nonzero;"/><path d="M11917.3,2879.4l11.068,0l-0,-434.114l-14.844,0l-0,363.282l-4.427,-7.553c-21.745,-38.542 -71.875,-97.917 -186.848,-162.239c-147.528,-82.552 -194.924,-156.12 -210.027,-193.49l-16.017,0l0,434.114l14.975,0l-0,-380.468l4.167,5.989c37.37,53.776 105.078,107.291 201.302,159.114c160.026,88.933 196.223,200 200.651,215.365Zm15.755,4.688l-19.401,-0l-0.391,-1.824c-0.261,-1.171 -29.297,-119.921 -198.828,-214.061c-93.359,-50.391 -160.156,-102.344 -198.698,-154.688l-0,370.573l-24.089,-0l0,-443.359l23.699,0l0.52,1.432c14.324,36.327 60.417,109.635 208.594,192.577c108.984,60.938 160.287,117.709 184.375,156.641l0,-350.65l24.219,0l0,443.359Z" style="fill:#fff;fill-rule:nonzero;"/><path d="M12493.6,2662.99c-0,-40.104 -7.554,-76.562 -22.657,-109.245c-14.974,-32.552 -37.241,-58.594 -66.668,-78.125c-29.297,-19.401 -64.713,-29.166 -106.249,-29.166c-41.407,-0 -76.823,9.765 -106.25,29.166c-29.297,19.531 -51.562,45.573 -66.536,78.125c-15.105,32.683 -22.656,69.141 -22.656,109.245c-0,39.714 7.551,75.911 22.656,108.593c14.974,32.683 37.239,58.594 66.536,77.865c29.427,19.142 64.843,28.777 106.25,28.777c41.536,-0 76.952,-9.635 106.249,-28.777c29.427,-19.271 51.694,-45.182 66.668,-77.865c15.103,-32.682 22.657,-68.879 22.657,-108.593Zm40.233,0c0,41.927 -9.244,80.209 -27.604,114.973c-18.359,34.897 -45.442,62.631 -81.119,83.334c-35.677,20.703 -77.995,30.99 -127.084,30.99c-49.87,-0 -92.708,-10.287 -128.385,-30.729c-35.677,-20.442 -62.5,-48.177 -80.469,-82.943c-17.969,-34.766 -26.953,-73.307 -26.953,-115.625c0,-42.709 8.984,-81.38 26.953,-116.277c17.969,-34.764 44.792,-62.499 80.469,-83.201c35.677,-20.705 78.515,-31.12 128.385,-31.12c50,-0 92.709,10.415 128.386,31.12c35.807,20.702 62.499,48.437 80.467,83.201c17.969,34.897 26.954,73.568 26.954,116.277Z" style="fill:#fff;fill-rule:nonzero;"/><path d="M12298,2448.8c-40.755,-0 -76.042,9.635 -104.948,28.776c-28.906,19.14 -51.041,45.181 -65.755,77.212c-14.974,32.163 -22.397,68.62 -22.397,108.204c0,39.193 7.423,75.391 22.397,107.683c14.714,32.03 36.849,57.811 65.755,76.823c28.906,18.879 64.193,28.384 104.948,28.384c40.886,0 76.172,-9.505 105.078,-28.384c28.906,-19.012 51.042,-44.793 65.756,-76.823c14.844,-32.292 22.395,-68.49 22.395,-107.683c0,-39.584 -7.551,-76.041 -22.395,-108.204c-14.714,-32.031 -36.85,-58.072 -65.756,-77.212c-28.906,-19.141 -64.192,-28.776 -105.078,-28.776Zm0,431.77c-41.667,-0 -77.864,-9.896 -107.552,-29.297c-29.557,-19.401 -52.344,-45.834 -67.448,-78.775c-15.103,-32.813 -22.787,-69.661 -22.787,-109.506c0,-40.234 7.684,-77.343 22.917,-110.156c14.974,-32.812 37.761,-59.506 67.318,-79.167c29.688,-19.532 65.885,-29.428 107.552,-29.428c41.797,0 77.995,9.896 107.553,29.428c29.686,19.661 52.344,46.355 67.577,79.167c15.105,32.813 22.786,69.922 22.786,110.156c0,39.973 -7.681,76.823 -22.786,109.506c-15.233,32.941 -37.891,59.374 -67.577,78.775c-29.558,19.401 -65.756,29.297 -107.553,29.297Zm0,-445.834c-49.219,0 -92.058,10.418 -127.213,30.729c-35.156,20.444 -61.849,48.048 -79.558,82.293c-17.708,34.375 -26.693,73.177 -26.693,115.234c0,41.796 8.985,80.339 26.693,114.584c17.709,34.245 44.402,61.849 79.558,82.03c35.155,20.183 77.994,30.34 127.213,30.34c48.437,-0 90.886,-10.287 125.911,-30.731c35.157,-20.311 62.24,-48.046 80.209,-82.291c18.229,-34.375 27.343,-72.655 27.343,-113.932c0,-42.057 -8.984,-80.859 -26.692,-115.234c-17.708,-34.245 -44.401,-61.979 -79.557,-82.293c-35.157,-20.311 -77.994,-30.729 -127.214,-30.729Zm0,459.897c-50.001,0 -93.62,-10.417 -129.558,-31.12c-35.937,-20.574 -63.281,-48.828 -81.25,-83.855c-18.099,-34.895 -27.213,-74.218 -27.213,-116.666c0,-42.839 9.114,-82.291 27.213,-117.318c17.969,-35.025 45.313,-63.281 81.25,-84.114c35.938,-20.833 79.557,-31.38 129.558,-31.38c50.13,-0 93.619,10.547 129.557,31.38c35.938,20.703 63.281,49.089 81.38,84.114c17.969,35.027 27.213,74.479 27.213,117.318c0,42.057 -9.374,81.12 -27.863,116.016c-18.49,35.025 -46.094,63.412 -82.032,84.245c-35.807,20.833 -79.035,31.38 -128.255,31.38Z" style="fill:#fff;fill-rule:nonzero;"/><path d="M6180.66,3704.01l101.302,-0l-53.515,-140.755l-47.787,140.755Zm-58.594,107.942l91.798,-250.781c3.385,-9.114 2.994,-14.453 -1.172,-19.01l35.677,-0l91.405,234.505c4.559,12.11 8.203,27.474 18.23,35.286l-20.442,0c-11.198,0 -16.928,-6.119 -20.314,-15.364l-30.729,-80.469l-110.025,0l-32.291,95.833l-22.137,0Z" style="fill:#fff;fill-rule:nonzero;"/><path d="M6187.17,3699.45l88.152,0l-46.614,-122.526l-41.538,122.526Zm101.563,9.245l-114.453,0l53.906,-159.114l60.547,159.114Zm-115.494,2.735l116.536,-0l31.771,83.593c3.255,8.724 7.943,12.37 16.016,12.37l10.156,0c-4.428,-6.771 -7.292,-14.844 -9.896,-22.266c-0.782,-2.343 -1.562,-4.687 -2.475,-6.771l-90.103,-231.64l-25,-0c1.302,5.339 -0.131,10.938 -1.954,16.015l-89.583,244.662l12.11,0l32.422,-95.963Zm198.046,105.208l-33.723,-0c-11.85,-0 -20.183,-6.25 -24.61,-18.49l-29.558,-77.474l-103.515,0l-32.421,95.964l-31.902,-0l94.01,-257.032c3.385,-9.244 1.693,-12.239 -0.39,-14.452l-6.901,-7.683l49.219,-0l92.448,237.501c0.91,2.343 1.823,4.687 2.603,7.031c3.516,10.286 7.162,20.703 14.324,26.302l10.416,8.333Z" style="fill:#fff;fill-rule:nonzero;"/><path d="M6717.64,3551.28c3.646,6.12 4.559,15.755 4.559,25.26l-0,201.042c-0,9.506 -0.913,19.011 -4.559,25.261l83.334,-0c50.781,-0 82.292,-63.932 82.292,-127.083c0,-62.631 -31.511,-124.48 -100.522,-124.48l-65.104,-0Zm-33.333,260.677c10.027,-7.031 10.807,-14.453 10.807,-27.343l0,-215.105c0,-13.281 -0.78,-20.833 -10.807,-27.343l99.349,-0c87.5,-0.912 131.641,63.02 131.641,134.114c-0,71.745 -44.141,135.677 -114.323,135.677l-116.667,0Z" style="fill:#fff;fill-rule:nonzero;"/><path d="M6724.54,3798.28l76.433,-0c48.047,-0 77.603,-63.542 77.603,-122.526c0,-59.636 -29.556,-119.922 -95.833,-119.922l-58.203,-0c1.563,5.338 2.214,11.979 2.214,20.702l0,201.042c0,8.725 -0.651,15.365 -2.214,20.704Zm63.151,-251.563c69.141,2.865 100.131,66.276 100.131,129.037c0,62.63 -30.339,127.213 -81.51,131.51c67.838,-3.255 104.297,-69.141 104.297,-130.99c-0,-38.542 -13.021,-72.786 -36.72,-96.224c-21.613,-21.354 -51.301,-32.812 -86.198,-33.333Zm-92.317,260.677l14.062,0l4.167,-6.901c3.516,-5.86 3.906,-15.885 3.906,-22.917l-0,-201.042c-0,-7.031 -0.39,-17.057 -3.906,-22.916l-4.167,-6.901l-13.932,-0c3.907,6.25 4.296,13.541 4.296,22.786l0,215.105c0,9.115 -0.389,16.406 -4.426,22.786Zm105.599,9.245l-131.119,-0l11.847,-8.463c8.073,-5.599 8.855,-11.198 8.855,-23.568l0,-215.105c0,-12.89 -0.782,-18.229 -8.724,-23.567l-12.761,-8.464l114.584,-0c39.193,-0.651 72.526,12.11 96.744,36.068c25.392,25.13 39.454,61.588 39.454,102.734c-0,79.949 -51.042,140.365 -118.88,140.365Z" style="fill:#fff;fill-rule:nonzero;"/><path d="M7246.55,3543.33c11.328,0 17.058,6.251 20.444,15.365l88.021,231.771l84.244,-248.307l22.005,-0l-91.275,250.781c-3.386,9.114 -2.996,14.453 1.171,19.01l-36.068,0l-90.494,-233.333c-4.689,-11.979 -8.333,-27.344 -18.36,-35.287l20.312,0Z" style="fill:#fff;fill-rule:nonzero;"/><path d="M7338.22,3807.39l25.39,0c-1.301,-5.469 0.131,-11.068 1.954,-16.145l89.063,-244.532l-11.979,-0l-87.37,257.292l-92.579,-243.62c-3.255,-8.724 -8.073,-12.5 -16.146,-12.5l-10.025,0c4.427,6.77 7.291,14.843 9.895,22.265c0.782,2.344 1.562,4.688 2.475,6.771l89.322,230.469Zm43.359,9.245l-49.739,-0l-91.537,-236.328c-0.91,-2.344 -1.692,-4.687 -2.603,-7.032c-3.516,-10.156 -7.162,-20.703 -14.323,-26.301l-10.417,-8.204l33.593,0c11.98,0 20.313,6.12 24.74,18.359l83.464,219.662l81.25,-239.323l31.9,-0l-93.619,257.032c-3.385,9.244 -1.693,12.109 0.261,14.322l7.03,7.813Z" style="fill:#fff;fill-rule:nonzero;"/><path d="M7897.72,3805.83c58.985,-0 92.969,-58.204 92.969,-129.558c0,-72.265 -33.984,-128.385 -92.969,-128.385c-59.374,0 -93.489,56.51 -93.489,128.385c0,71.354 34.115,129.558 93.489,129.558Zm0,-267.449c78.907,0 125,60.548 125,137.891c-0,75.912 -47.395,139.454 -125,139.454c-77.213,-0 -125,-63.542 -125,-139.454c0,-76.823 47.787,-137.891 125,-137.891Z" style="fill:#fff;fill-rule:nonzero;"/><path d="M7897.72,3552.58c-53.124,0 -88.801,49.61 -88.801,123.698c-0,62.11 27.474,124.87 88.801,124.87c61.069,-0 88.412,-62.76 88.412,-124.87c0,-74.088 -35.547,-123.698 -88.412,-123.698Zm0,257.813c-57.681,-0 -98.046,-55.208 -98.046,-134.115c0,-79.557 39.452,-132.943 98.046,-132.943c58.333,0 97.656,53.386 97.656,132.943c0,78.907 -40.234,134.115 -97.656,134.115Zm0,-267.448c-70.832,0 -120.443,54.817 -120.443,133.333c0,78.125 50.652,134.896 120.443,134.896c70.834,0 120.313,-55.469 120.313,-134.896c-0,-79.817 -48.307,-133.333 -120.313,-133.333Zm0,277.344c-75.13,-0 -129.557,-60.547 -129.557,-144.011c0,-83.984 53.255,-142.578 129.557,-142.578c77.475,0 129.558,57.292 129.558,142.578c0,83.464 -54.427,144.011 -129.558,144.011Z" style="fill:#fff;fill-rule:nonzero;"/><path d="M8570.38,3746.85l14.974,12.37c-17.838,35.287 -54.037,56.511 -96.745,56.511c-83.463,-0 -129.948,-58.073 -129.948,-138.672c-0,-80.599 51.432,-139.063 129.557,-139.063c40.235,0 71.745,14.844 85.938,38.151c13.671,23.307 14.453,45.703 -2.994,68.88c-8.594,-53.906 -42.709,-97.135 -87.11,-97.135c-63.151,0 -93.88,58.594 -93.88,128.385c-0,69.662 40.234,129.558 98.828,129.558c26.952,-0 54.817,-12.109 81.38,-58.985Z" style="fill:#fff;fill-rule:nonzero;"/><path d="M8488.22,3542.55c-73.567,0 -125,55.339 -125,134.506c-0,82.682 48.048,134.114 125.391,134.114c39.583,0 73.307,-18.88 90.885,-50.781l-7.812,-6.51c-23.048,38.541 -49.479,56.51 -82.682,56.51c-58.985,-0 -103.385,-57.682 -103.385,-134.115c-0,-80.859 38.541,-132.943 98.437,-132.943c41.537,0 77.214,36.329 89.453,89.584c9.374,-17.318 8.203,-34.896 -3.386,-54.427c-13.542,-22.526 -44.271,-35.938 -81.901,-35.938Zm0.391,277.735c-81.772,-0 -134.635,-56.12 -134.635,-143.229c-0,-84.636 55.208,-143.75 134.244,-143.75c40.885,-0 74.48,15.104 89.844,40.495c15.495,26.301 14.453,50.52 -3.125,74.088l-6.511,8.593l-1.692,-10.677c-8.984,-54.947 -42.968,-93.229 -82.682,-93.229c-65.885,0 -89.193,66.537 -89.193,123.698c0,71.094 40.495,124.87 94.141,124.87c19.401,-0 48.697,-5.859 77.343,-56.641l2.735,-4.817l22.005,18.359l-1.563,3.255c-18.749,36.98 -56.51,58.985 -100.911,58.985Z" style="fill:#fff;fill-rule:nonzero;"/><path d="M8960.35,3704.01l101.303,-0l-53.646,-140.755l-47.657,140.755Zm-58.594,107.942l91.798,-250.781c3.255,-9.114 2.864,-14.453 -1.302,-19.01l35.807,-0l91.277,234.505c4.557,12.11 8.333,27.474 18.229,35.286l-20.313,0c-11.198,0 -17.058,-6.119 -20.313,-15.364l-30.729,-80.469l-110.026,0l-32.422,95.833l-22.006,0Z" style="fill:#fff;fill-rule:nonzero;"/><path d="M8966.73,3699.45l88.152,0l-46.614,-122.526l-41.538,122.526Zm101.563,9.245l-114.453,0l54.037,-159.114l60.416,159.114Zm-115.494,2.735l116.535,-0l31.902,83.593c3.125,8.724 7.943,12.37 16.016,12.37l10.156,0c-4.557,-6.771 -7.292,-14.844 -9.896,-22.266c-0.912,-2.343 -1.692,-4.687 -2.474,-6.771l-90.234,-231.64l-25,-0c1.301,5.339 -0.131,10.938 -1.954,16.015l-89.453,244.662l12.11,0l32.292,-95.963Zm198.046,105.208l-33.593,-0c-11.85,-0 -20.183,-6.25 -24.61,-18.49l-29.688,-77.474l-103.515,0l-32.291,95.964l-32.032,-0l94.142,-257.032c3.255,-9.244 1.692,-12.239 -0.391,-14.452l-7.032,-7.683l49.349,-0l92.448,237.501c0.912,2.343 1.693,4.687 2.603,7.031c3.516,10.286 7.163,20.703 14.194,26.302l10.416,8.333Z" style="fill:#fff;fill-rule:nonzero;"/><path d="M9656.71,3746.85l14.842,12.37c-17.838,35.287 -53.905,56.511 -96.614,56.511c-83.594,-0 -130.078,-58.073 -130.078,-138.672c0,-80.599 51.562,-139.063 129.557,-139.063c40.364,0 71.875,14.844 85.937,38.151c13.803,23.307 14.584,45.703 -2.864,68.88c-8.724,-53.906 -42.709,-97.135 -87.239,-97.135c-63.022,0 -93.751,58.594 -93.751,128.385c0,69.662 40.236,129.558 98.829,129.558c26.953,-0 54.818,-12.109 81.381,-58.985Z" style="fill:#fff;fill-rule:nonzero;"/><path d="M9574.41,3542.55c-73.568,0 -124.869,55.339 -124.869,134.506c-0,82.682 48.046,134.114 125.39,134.114c39.583,0 73.177,-18.88 90.886,-50.781l-7.943,-6.51c-23.047,38.541 -49.349,56.51 -82.552,56.51c-58.984,-0 -103.516,-57.682 -103.516,-134.115c-0,-80.859 38.671,-132.943 98.438,-132.943c41.536,0 77.213,36.329 89.584,89.584c9.244,-17.318 8.072,-34.896 -3.386,-54.427c-13.673,-22.526 -44.271,-35.938 -82.032,-35.938Zm0.521,277.735c-81.771,-0 -134.635,-56.12 -134.635,-143.229c0,-84.636 55.209,-143.75 134.114,-143.75c41.016,-0 74.609,15.104 89.974,40.495c15.495,26.301 14.453,50.52 -3.255,74.088l-6.51,8.593l-1.693,-10.677c-8.855,-54.947 -42.839,-93.229 -82.682,-93.229c-65.756,0 -89.194,66.537 -89.194,123.698c0,71.094 40.496,124.87 94.272,124.87c19.401,-0 48.568,-5.859 77.343,-56.641l2.734,-4.817l22.006,18.359l-1.692,3.255c-18.621,36.98 -56.38,58.985 -100.782,58.985Z" style="fill:#fff;fill-rule:nonzero;"/><path d="M10053.2,3784.61c0,11.979 -0.782,20.312 8.725,27.343l-15.365,0c-17.448,0 -20.312,-14.062 -20.312,-33.203l-0,-209.245c-0,-12.109 0.78,-20.833 -8.725,-27.343l15.364,-0c17.449,-0 20.313,14.062 20.313,33.203l0,209.245Z" style="fill:#fff;fill-rule:nonzero;"/><path d="M10027.8,3546.72c3.125,5.99 3.125,12.89 3.125,20.182l-0.13,2.604l-0,209.245c-0,21.355 4.036,28.646 15.755,28.646l5.208,0c-3.255,-5.99 -3.255,-12.761 -3.125,-20.182l0,-211.849c0,-21.485 -4.037,-28.646 -15.756,-28.646l-5.077,-0Zm48.177,269.922l-29.427,-0c-24.871,-0 -24.871,-25.521 -24.871,-37.891l0,-211.979c0,-11.198 -0.26,-16.276 -6.771,-20.833l-12.108,-8.464l30.077,-0c25.001,-0 25.001,25.521 25.001,37.891l-0,211.979c-0.131,10.938 0.13,16.016 6.771,20.964l11.328,8.333Z" style="fill:#fff;fill-rule:nonzero;"/><path d="M10448.9,3704.01l101.433,-0l-53.648,-140.755l-47.785,140.755Zm-58.464,107.942l91.666,-250.781c3.385,-9.114 2.996,-14.453 -1.172,-19.01l35.677,-0l91.407,234.505c4.557,12.11 8.333,27.474 18.229,35.286l-20.313,0c-11.198,0 -17.056,-6.119 -20.312,-15.364l-30.729,-80.469l-110.157,0l-32.291,95.833l-22.005,0Z" style="fill:#fff;fill-rule:nonzero;"/><path d="M10455.4,3699.45l88.151,0l-46.615,-122.526l-41.536,122.526Zm101.562,9.245l-114.452,0l53.906,-159.114l60.546,159.114Zm-115.495,2.735l116.537,-0l31.901,83.593c3.125,8.724 7.942,12.37 16.015,12.37l10.026,0c-4.426,-6.771 -7.29,-14.844 -9.896,-22.266c-0.78,-2.343 -1.562,-4.687 -2.342,-6.771l-90.235,-231.64l-24.999,-0c1.301,5.339 -0.131,10.938 -1.954,16.015l-89.583,244.662l12.108,0l32.422,-95.963Zm198.048,105.208l-33.595,-0c-11.978,-0 -20.312,-6.25 -24.738,-18.49l-29.558,-77.474l-103.516,0l-32.422,95.964l-31.9,-0l94.01,-257.032c3.385,-9.244 1.692,-12.239 -0.261,-14.452l-7.03,-7.683l49.217,-0l92.578,237.501c0.782,2.343 1.693,4.687 2.475,7.031c3.516,10.286 7.291,20.703 14.323,26.302l10.417,8.333Z" style="fill:#fff;fill-rule:nonzero;"/><rect x="5399.14" y="3257.14" width="6253.27" height="27.734" style="fill:#fff;fill-rule:nonzero;"/><path d="M3195.83,1008.05c-41.119,45.443 -76.549,96.094 -106.314,152.083c-29.754,55.99 -56.328,114.845 -79.727,176.433c-23.386,61.718 -43.959,124.089 -61.68,187.109c-17.734,63.151 -34.375,123.698 -49.947,181.901c26.9,-26.953 55.976,-57.032 87.161,-90.364c31.171,-33.334 62.369,-68.099 93.568,-104.167c31.158,-36.198 61.301,-73.698 90.364,-112.761c29.049,-38.932 55.625,-77.603 79.74,-115.885c25.521,-41.145 46.784,-81.511 63.788,-121.223c17.006,-39.584 27.644,-76.563 31.889,-110.547c7.07,-69.402 -4.987,-105.99 -36.146,-109.506c-31.185,-3.516 -68.777,18.88 -112.696,66.927Zm-418.88,1186.59c-9.922,48.177 -18.073,92.839 -24.453,133.855c-6.367,41.144 -9.557,76.561 -9.557,106.379c-0,9.896 1.393,21.224 4.245,33.984c2.825,12.76 6.706,23.438 11.692,31.902c4.961,8.462 10.639,12.499 17.005,11.717c6.394,-0.65 13.829,-9.635 22.331,-26.561c11.328,-24.088 16.654,-59.895 15.951,-107.422c-0.729,-47.396 -13.112,-108.723 -37.214,-183.854Zm-127.577,235.938c-7.11,-35.417 -8.868,-75.783 -5.313,-121.225c3.528,-45.312 9.57,-91.407 18.073,-138.151c8.503,-46.744 18.073,-92.448 28.711,-137.11c10.625,-44.66 20.195,-84.766 28.698,-120.182l14.882,-57.421c-77.969,55.339 -160.898,95.052 -248.776,119.14c-87.903,24.09 -181.458,37.11 -280.664,39.323c-99.245,2.084 -204.127,-3.516 -314.7,-17.057c-110.56,-13.411 -227.514,-29.427 -350.833,-47.787c-68.047,-9.896 -153.464,-22.004 -256.225,-36.198c-102.799,-14.192 -210.872,-26.561 -324.271,-37.239c-113.424,-10.546 -226.445,-17.317 -339.14,-20.182c-112.683,-2.865 -212.982,1.433 -300.873,12.761c-25.507,2.864 -53.88,7.421 -85.052,13.801c-31.197,6.38 -60.273,16.015 -87.174,28.777c-26.94,12.76 -49.648,29.426 -68.047,50c-18.437,20.442 -27.643,47.135 -27.643,79.687c-0,8.464 -2.852,14.844 -8.503,19.14c-5.677,4.168 -11.692,6.38 -18.073,6.38c-6.38,0 -12.057,-2.212 -17.005,-6.38c-4.987,-4.296 -7.448,-10.676 -7.448,-19.14c0,-41.146 10.273,-75.131 30.834,-102.083c20.533,-26.954 46.419,-48.569 77.617,-64.845c31.159,-16.276 65.169,-28.645 102.057,-37.239c36.849,-8.464 71.563,-14.844 104.193,-19.141c90.703,-11.328 192.76,-15.624 306.185,-12.76c113.398,2.864 227.148,9.635 341.263,20.182c114.101,10.677 222.539,23.047 325.325,37.24c102.773,14.193 189.57,26.301 260.482,36.197c124.713,19.792 243.45,36.85 356.159,51.042c112.695,14.193 219.335,19.792 320,16.928c100.638,-2.735 194.557,-16.928 281.732,-42.448c87.187,-25.522 168.32,-68.75 243.463,-129.688c2.826,-7.161 4.961,-13.541 6.38,-19.141c1.394,-5.728 2.826,-12.108 4.258,-19.14c21.264,-80.859 43.92,-159.896 68.034,-237.109c24.088,-77.214 48.177,-147.136 72.305,-209.506c14.154,-33.984 31.158,-71.875 51.028,-113.672c19.831,-41.796 42.865,-82.551 69.102,-122.266c26.211,-39.712 54.908,-75.91 86.12,-108.463c31.172,-32.552 64.492,-56.64 99.935,-72.266c31.159,-12.76 64.479,-14.974 99.934,-6.38c35.417,8.464 59.532,29.036 72.292,61.588c17.006,46.746 15.951,100.653 -3.177,161.589c-19.153,61.069 -49.284,124.739 -90.378,191.406c-28.372,45.444 -60.26,91.146 -95.677,137.11c-35.455,46.094 -71.601,90.104 -108.45,131.901c-36.875,41.798 -73.021,80.73 -108.438,116.927c-35.442,36.198 -67.344,67.709 -95.676,94.661c-14.193,52.475 -29.076,109.115 -44.663,170.053c-15.611,60.937 -29.765,121.875 -42.525,182.812c80.794,-14.062 157.344,-31.119 229.648,-51.041c72.278,-19.792 141.732,-44.532 208.373,-74.35c66.615,-29.817 131.107,-65.233 193.489,-106.379c62.357,-41.016 123.334,-89.975 182.865,-146.615c11.328,-8.594 21.966,-9.244 31.901,-2.214c9.896,10.026 9.205,20.574 -2.136,31.902c-60.963,56.771 -122.617,105.99 -184.986,147.786c-62.397,41.796 -126.875,77.995 -193.49,108.463c-66.641,30.468 -136.094,56.381 -208.385,77.605c-72.292,21.223 -148.828,39.063 -229.636,53.125c26.914,82.291 40.404,150 40.404,203.124c-0,53.125 -7.11,93.88 -21.263,122.266c-7.11,15.625 -16.315,28.645 -27.643,39.323c-11.355,10.677 -24.818,15.885 -40.404,15.885c-35.456,1.433 -62.396,-11.328 -80.795,-38.28c-18.437,-26.824 -31.198,-55.21 -38.28,-85.026Z" style="fill:#fff;fill-rule:nonzero;"/><path d="M3623.22,1726.8c17.006,-31.12 29.766,-64.453 38.269,-99.999c5.651,-22.656 10.273,-49.219 13.828,-79.688c3.515,-30.47 3.515,-60.547 -0,-90.365c-3.555,-29.818 -11.003,-57.031 -22.331,-81.902c-11.367,-24.738 -29.075,-43.489 -53.164,-56.249c-29.753,-14.192 -58.476,-14.583 -86.107,-1.171c-27.643,13.54 -46.419,35.937 -56.354,67.057c-8.503,29.686 -8.503,60.937 0,93.489c8.503,32.682 21.628,64.193 39.349,94.662c17.734,30.468 38.268,59.245 61.654,86.067c23.398,26.953 45.025,49.739 64.856,68.099Zm699.545,280.73c-49.636,43.88 -102.058,86.848 -157.344,128.646c-55.287,41.796 -108.438,76.821 -159.466,105.207c-21.276,12.761 -46.784,25.521 -76.55,38.282c-29.766,12.761 -59.531,21.614 -89.31,26.562c-29.766,4.948 -58.476,3.907 -86.12,-3.255c-27.629,-7.03 -50.69,-24.74 -69.101,-53.125c-17.005,-26.954 -26.575,-57.683 -28.698,-92.447c-2.135,-34.767 0.326,-67.058 7.435,-96.746l40.404,-140.365c4.244,-15.624 -0.73,-33.984 -14.883,-55.338c-11.367,-15.494 -26.576,-32.552 -45.716,-50.911c-19.128,-18.49 -38.646,-37.63 -58.477,-57.422c-11.328,-9.896 -21.588,-19.922 -30.833,-29.818c-9.193,-9.896 -17.344,-19.14 -24.453,-27.604c-18.399,-21.355 -36.146,-44.661 -53.152,-70.183c-17.004,-25.52 -31.523,-52.083 -43.58,-79.818c-12.032,-27.604 -20.209,-56.249 -24.466,-86.067c-4.258,-29.817 -2.123,-58.854 6.38,-87.239c7.123,-21.224 17.747,-40.364 31.888,-57.292c14.193,-17.058 30.833,-30.079 49.987,-39.323c19.141,-9.244 39.688,-13.932 61.654,-13.932c21.992,0 43.58,5.079 64.856,14.975c29.766,14.192 52.097,35.416 66.966,63.8c14.896,28.256 24.467,59.115 28.712,92.45c4.244,33.332 4.595,67.707 1.067,103.124c-3.554,35.416 -8.88,66.666 -15.95,93.62c-5.677,19.79 -12.422,40.364 -20.196,61.588c-7.812,21.224 -17.382,41.797 -28.71,61.719c17.004,15.624 35.077,31.511 54.231,47.787c19.128,16.276 36.836,33.984 53.152,53.125c16.276,19.14 28.332,39.712 36.145,61.718c7.774,22.005 8.828,45.703 3.19,71.224c-5.69,19.792 -11.367,40.105 -17.005,60.547c-5.69,20.572 -10.638,41.536 -14.896,62.76c-11.354,58.204 -10.625,99.218 2.136,123.308c8.502,17.057 22.656,25.911 42.513,26.562c19.843,0.782 41.106,-2.474 63.789,-9.505c22.669,-7.161 43.932,-15.625 63.801,-25.521c19.831,-9.896 35.404,-18.36 46.784,-25.52c49.597,-28.386 100.639,-62.37 153.087,-102.085c52.422,-39.712 102.747,-80.728 150.976,-123.306c79.349,-63.803 164.414,-109.506 255.143,-137.11c90.704,-27.735 187.448,-43.62 290.247,-47.916c102.814,-4.168 211.537,0.389 326.381,13.801c114.844,13.542 236.054,29.427 363.541,47.918c68.099,9.896 153.517,22.004 256.251,36.068c102.733,14.192 210.807,26.691 324.348,37.239c113.282,10.676 226.432,17.447 339.063,20.181c112.761,2.866 213.021,-1.301 300.911,-12.76c25.521,-2.734 53.907,-7.421 85.027,-13.801c31.12,-6.38 60.286,-15.887 87.239,-28.647c26.823,-12.76 49.61,-29.427 67.97,-49.999c18.488,-20.573 27.604,-47.136 27.604,-79.688c-0,-8.594 2.473,-14.974 7.551,-19.14c4.948,-4.298 10.546,-6.38 16.928,-6.38c6.38,-0 12.369,2.082 18.097,6.38c5.6,4.166 8.464,10.546 8.464,19.14c0,41.146 -10.285,75.131 -30.729,101.953c-20.572,26.954 -46.483,48.567 -77.603,64.843c-31.251,16.407 -65.235,28.777 -102.085,37.241c-36.978,8.593 -71.614,14.973 -104.166,19.14c-61.067,8.595 -126.954,13.152 -197.786,13.802c-70.963,0.782 -144.27,-0.65 -220.053,-4.166c-75.91,-3.516 -152.082,-8.855 -228.645,-16.016c-76.562,-7.031 -150.651,-14.844 -222.136,-23.307c-71.614,-8.595 -138.672,-17.448 -200.91,-26.694c-62.501,-9.114 -117.057,-17.317 -163.803,-24.349c-123.307,-18.488 -241.29,-34.764 -354.036,-48.957c-112.631,-14.193 -219.011,-19.792 -318.92,-17.058c-99.935,2.865 -193.867,16.798 -281.745,41.536c-87.903,24.87 -168.698,66.927 -242.395,126.564Z" style="fill:#fff;fill-rule:nonzero;"/><path d="M5508.53,1495.68l-118.229,-470.312c-3.386,-0 -6.901,-0 -10.417,-0.131l117.839,470.443l-555.209,0l121.355,-484.374c-2.605,0.78 -5.079,1.171 -7.683,1.171l-1.823,0l-122.656,483.203l-48.959,0c0,0 19.011,103.517 337.357,103.517c318.373,-0 337.513,-103.517 337.513,-103.517l-49.088,0Z" style="fill:#fff;fill-rule:nonzero;"/><path d="M6578.06,362.329c-21.874,0 -38.15,-16.341 -38.15,-38.137c-0,-21.796 16.276,-38.137 38.15,-38.137l27.213,-0c21.745,-0 38.021,16.341 38.021,38.137c0,21.796 -16.276,38.137 -38.021,38.137l-27.213,0Zm-1306.25,-38.137c-0,21.796 -16.276,38.137 -38.022,38.137l-27.213,0c-21.876,0 -38.152,-16.341 -38.152,-38.137c0,-21.796 16.276,-38.137 38.152,-38.137l27.213,-0c21.746,-0 38.022,16.341 38.022,38.137Zm1325.26,46.315l8.203,0c27.215,0 46.225,-21.798 46.225,-46.315c-0,-27.24 -21.746,-46.315 -46.225,-46.315l-19.14,-0c-48.959,-51.758 -84.375,8.178 -84.375,8.178l-78.907,-0c-296.613,-209.78 -331.901,-0 -331.901,-0l-103.384,-0c-0,-0 5.339,-111.693 -32.683,-136.225c0,0 -21.745,-119.87 67.968,-119.87l51.693,-0l-0,-29.96l-334.635,0l0,29.96l51.692,-0c87.111,-0 67.97,119.87 67.97,119.87c-38.021,24.532 -32.552,136.225 -32.552,136.225l-103.516,-0c-0,-0 -35.286,-209.78 -331.901,-0l-78.906,-0c0,-0 -32.682,-57.214 -84.389,-8.178l-18.997,-0c-27.213,-0 -46.354,21.796 -46.354,46.315c-0,27.24 21.744,46.315 46.354,46.315l8.073,0l-68.88,271.146c2.734,-0.429 5.469,-0.938 8.203,-1.445l63.398,-253.36l55.339,220.833c3.008,-0.845 6.133,-1.692 9.128,-2.5l-58.985,-234.674l8.203,0c27.201,0 46.225,-21.798 46.225,-46.315c-0,-21.796 -16.276,-40.873 -38.152,-46.315c21.876,-2.721 54.428,-0 54.428,49.036l95.312,0c-0,0 252.995,-177.083 299.349,0l133.333,0l-0,103.529l-27.213,0l-0,21.784c-0,32.695 40.755,21.796 40.755,21.796l-0,400.431c-67.968,141.666 13.671,201.692 13.671,201.692l-0,523.048c-38.15,54.426 -40.884,155.207 -40.884,155.207l-51.694,-0l-46.223,171.746l386.327,-0l-46.223,-171.746l-51.692,-0c-0,-0 -5.47,-100.781 -40.756,-155.207l0,-520.314c0,0 78.906,-62.76 13.541,-201.693l0,-403.164c0,0 40.886,8.178 40.886,-21.796l-0,-21.784l-27.213,0l-0,-103.529l133.333,0c46.224,-177.083 299.218,0 299.218,0l95.314,0c-0,-49.036 32.68,-51.757 54.426,-49.036c-21.746,5.442 -38.15,24.519 -38.15,46.315c-0,27.24 21.874,46.315 46.353,46.315l8.073,0l-54.687,217.773c3.645,-2.083 7.291,-3.957 11.198,-5.547l48.958,-195.885l49.739,198.425c3.646,1.367 7.292,2.852 10.808,4.439l-55.079,-219.205Z" style="fill:#fff;fill-rule:nonzero;"/><path d="M6880.01,1495.68l-118.23,-470.443c-3.646,0.131 -7.291,-0.391 -10.807,-1.562l118.229,472.005l-555.209,0l126.042,-503.386c-1.953,0.391 -4.167,0.522 -6.51,0.522c-1.302,-0 -2.605,-0 -3.776,-0.131l-126.563,502.995l-48.958,0c-0,0 19.01,103.517 337.37,103.517c318.359,-0 337.499,-103.517 337.499,-103.517l-49.087,0Z" style="fill:#fff;fill-rule:nonzero;"/><path d="M6771.29,747.083c-0,-98.88 -80.077,-179.024 -178.776,-179.024c-98.697,0 -178.646,80.144 -178.646,179.024c0,70.729 40.756,131.275 100.391,161.093l-6.771,35.807l-20.443,0c-7.681,0 -26.432,0 -120.051,114.324c-3.386,3.385 -4.168,8.464 -3.386,12.76c0.911,5.078 3.386,8.464 6.771,11.98l1.693,0.78l-34.896,46.875c-6.772,9.376 -9.245,20.443 -7.552,32.423c1.693,11.067 8.464,21.353 17.839,28.124c7.681,5.078 16.145,7.683 25.52,7.683c13.672,0 27.213,-5.99 35.677,-17.84l34.896,-47.005l3.516,2.605c0.781,0.911 1.693,0.911 1.693,0.911c0.78,19.531 9.375,36.589 22.135,47.657l-23.047,112.63c-0.781,5.079 -0,10.155 3.385,14.453c3.386,4.297 7.682,5.989 12.76,5.989l0,109.115c0,28.906 23.047,52.865 51.043,52.865c28.125,0 51.171,-23.959 51.171,-52.865l-0,-110.807c2.474,-1.824 5.078,-3.516 6.771,-6.902l18.751,-32.422l18.749,32.422c1.693,2.605 4.167,5.078 6.771,6.902l-0,110.807c-0,28.906 22.917,52.865 51.042,52.865c28.124,0 51.041,-23.959 51.041,-52.865l-0,-109.115c5.078,0 9.376,-1.692 12.76,-5.989c3.385,-4.298 5.078,-8.594 4.298,-13.672l-15.366,-119.4l0,-0.782c9.375,-10.287 15.366,-24.74 15.366,-40.104l31.509,42.707c8.464,11.069 22.137,17.84 35.679,17.84c21.352,0 39.973,-15.365 43.489,-35.807c1.693,-11.069 -0.912,-23.047 -7.682,-32.423l-34.897,-46.875l1.693,-0.78c4.166,-2.606 6.771,-6.902 6.771,-11.98c0.911,-5.078 -0.782,-9.375 -3.385,-12.76c-93.621,-114.324 -113.152,-114.324 -120.052,-114.324l-20.444,0l-5.858,-32.291c63.802,-27.343 108.072,-91.276 108.072,-164.609Zm-178.776,-144.922c68.099,0 125.13,46.887 140.495,109.973c-51.953,5.118 -63.02,-33.242 -63.933,-37.513c-0.78,-2.551 -1.692,-4.258 -3.385,-6.809c-5.859,-7.682 -16.146,-8.529 -23.828,-2.565c-23.827,18.763 -45.964,26.432 -64.582,23.02c-24.74,-4.257 -39.193,-27.279 -39.193,-27.279c-3.386,-5.976 -11.069,-9.387 -17.839,-7.681c-6.901,1.705 -12.761,6.823 -13.672,14.505c-0,0 -5.079,33.242 -25.521,46.887c-8.463,5.964 -17.838,7.67 -29.818,5.964l-0.782,0c12.762,-67.356 71.486,-118.502 142.058,-118.502Zm-211.849,558.359c-3.386,4.296 -9.375,5.209 -13.671,1.693c-4.168,-2.474 -5.079,-7.552 -2.475,-11.85l34.897,-47.785l15.233,11.067l-33.984,46.875Zm152.344,266.927c0,10.157 -7.683,18.751 -17.058,18.751c-9.374,-0 -17.056,-8.594 -17.056,-18.751l-0,-109.115l34.114,0l0,109.115Zm153.126,0c-0,10.157 -7.684,18.751 -17.059,18.751c-9.244,-0 -16.926,-8.594 -16.926,-18.751l0,-109.115l33.985,0l-0,109.115Zm-50.132,-143.229l-28.124,-48.568c-3.385,-5.208 -8.464,-8.594 -14.453,-8.594c-5.99,0 -11.979,3.386 -14.453,8.594l-29.818,48.568l-63.802,-0l16.145,-85.286l188.022,0l11.067,85.286l-64.584,-0Zm176.172,-133.073c1.693,2.604 1.693,4.297 1.693,5.989c-1.693,6.902 -12.76,10.287 -17.969,3.386l-33.984,-46.875l15.365,-11.067c0,0.911 34.895,48.567 34.895,48.567Zm-124.348,-173.047c11.978,6.901 50.261,47.787 84.245,87.891l-45.052,32.291l-37.5,-67.317c-4.167,-8.464 -15.235,-11.067 -22.917,-6.771c-8.464,4.296 -11.069,15.364 -6.771,23.047l44.141,79.297l0,9.374c0,16.146 -11.067,29.819 -23.829,29.819l-174.349,-0c-12.76,-0 -23.828,-13.673 -23.828,-29.819l0,-24.74l35.677,-63.931c4.298,-8.594 1.693,-18.751 -6.771,-23.047c-8.593,-4.296 -18.749,-1.693 -23.045,6.771l-33.204,60.547l-5.079,5.077l-44.271,-31.509c34.115,-40.105 71.485,-80.989 84.245,-87.761l33.203,0c8.595,0 15.366,-5.99 17.059,-13.672l8.462,-44.402c14.454,4.298 29.818,5.991 45.964,5.991c12.76,0 25.52,-1.693 37.5,-4.167l7.682,41.667c1.692,7.682 8.463,13.671 16.927,13.671l31.511,0l0,1.693Zm-95.313,-86.068c-77.473,0 -140.365,-60.547 -144.661,-137.265c4.296,0.845 8.594,0.845 11.979,0.845c15.234,0 28.906,-4.256 40.756,-12.785c14.453,-10.222 23.827,-25.573 29.816,-39.206c10.287,7.657 23.047,15.339 39.975,18.75c23.828,4.258 48.568,-1.706 74.87,-17.904c12.89,20.456 37.5,42.618 79.166,42.618c4.298,0 8.594,0 13.673,-0.847l-0,0.847c-0.913,80.104 -65.496,144.947 -145.574,144.947Z" style="fill:#fff;fill-rule:nonzero;"/><path d="M6558.53,781.223c-0,-9.375 -7.682,-17.056 -17.057,-17.056l-33.985,-0c-9.375,-0 -17.057,7.681 -17.057,17.056c0,9.375 7.682,17.058 17.057,17.058l33.985,0c9.375,0 17.057,-7.683 17.057,-17.058Z" style="fill:#fff;fill-rule:nonzero;"/><path d="M6677.67,764.167l-34.115,-0c-9.244,-0 -16.928,7.681 -16.928,17.056c0,9.375 7.684,17.058 16.928,17.058l34.115,0c9.374,0 17.056,-7.683 17.056,-17.058c0,-9.375 -7.682,-17.056 -17.056,-17.056Z" style="fill:#fff;fill-rule:nonzero;"/><path d="M6609.57,822.109l-7.683,4.296c-5.077,2.475 -14.453,2.475 -19.532,-0l-6.769,-4.296c-8.594,-4.297 -18.751,-1.693 -23.047,5.989c-4.298,8.464 -1.693,18.75 5.989,23.047l7.682,4.167c7.553,4.297 16.927,6.9 26.302,6.9c9.375,0 18.751,-2.603 26.433,-6.9l7.681,-4.167c8.464,-4.297 11.068,-15.364 5.861,-23.047c-4.168,-8.593 -14.453,-11.068 -22.917,-5.989Z" style="fill:#fff;fill-rule:nonzero;"/><path d="M5312.57,807.004l-33.999,-0c-9.361,-0 -17.043,7.683 -17.043,17.058c-0,9.375 7.682,16.926 17.043,16.926l33.999,0c9.375,0 17.056,-7.551 17.056,-16.926c0,-9.375 -7.681,-17.058 -17.056,-17.058Z" style="fill:#fff;fill-rule:nonzero;"/><path d="M5414.78,792.421c7.552,-0 15.221,-0 21.992,3.385c14.583,5.209 25.665,17.058 33.216,29.949c7.682,11.849 15.351,51.04 37.5,41.666c5.99,-2.473 11.068,-9.375 11.068,-16.146l-0,-51.171c-0,-36.589 -17.057,-72.436 -45.052,-96.316c-29.036,-24.713 -62.24,-29.831 -98.842,-29.831c-4.153,-0 -23.815,-25.586 -28.893,-28.984c-74.87,-60.534 -188.021,-52.864 -253.645,17.044c-3.386,4.258 -6.772,7.683 -10.156,11.94l-19.532,-0c-70.703,-0.858 -126.823,56.263 -126.823,126.147l-0,51.171c-0,8.594 6.771,16.146 16.146,17.058c10.156,0.911 18.75,-8.464 21.224,-17.058c7.682,-27.213 23.828,-47.787 44.271,-55.469c7.682,-2.473 15.364,-3.385 23.828,-3.385c0.912,73.307 44.27,137.24 107.292,166.276c-1.693,5.989 -5.079,21.354 -7.683,35.027l-43.359,-0c-51.172,0.78 -91.146,39.193 -91.146,86.067c0,4.297 1.693,7.682 4.297,11.068l-29.818,40.103c-6.771,9.377 -9.374,20.444 -7.682,32.292c3.385,20.574 22.135,35.807 43.49,35.807c13.541,0 27.213,-5.859 35.677,-17.838l63.021,-84.375l0.781,-0c-12.761,28.125 -29.688,57.944 -49.35,88.672c-16.926,26.433 -21.223,49.348 -12.76,69.01c5.99,14.453 19.662,25.522 38.282,32.422l-0,140.625c-0,29.037 23.047,52.866 51.171,52.866c27.995,-0 51.042,-23.829 51.042,-52.866l-0,-144.009c16.133,-2.605 34.896,-2.605 51.042,-0l0,144.009c0,29.037 22.917,52.866 51.042,52.866c28.124,-0 51.041,-23.829 51.041,-52.866l-0,-140.625c18.751,-5.989 32.422,-17.057 38.282,-32.422c8.58,-19.662 4.296,-42.577 -12.774,-69.01c-19.532,-30.728 -36.575,-60.547 -49.336,-88.672l0.911,-0l62.892,84.375c8.58,11.069 22.135,17.838 35.807,17.838c21.224,0 39.973,-15.233 43.359,-35.807c1.693,-11.068 -0.795,-22.915 -7.682,-32.292l-29.688,-40.103c2.461,-2.604 4.153,-6.771 4.153,-11.068c0,-46.874 -39.96,-85.287 -90.09,-85.287l-43.504,0c-1.692,-10.287 -4.153,-21.354 -5.976,-29.036c69.011,-25.52 120.039,-93.749 120.964,-173.047Zm-372.005,-34.062l-9.376,-0c-9.244,-0 -18.619,1.705 -27.994,5.156c-12.761,5.078 -24.74,12.76 -34.896,22.917c5.859,-44.272 43.359,-78.373 89.323,-79.232c-8.464,16.211 -13.672,33.255 -17.057,51.159Zm440.872,28.983c-10.143,-10.285 -22.122,-18.749 -34.883,-23.045c-9.374,-3.386 -18.763,-5.093 -28.125,-5.093l-8.477,0c-3.385,-17.903 -8.449,-34.947 -16.145,-51.145c44.284,1.705 81.653,34.949 87.63,79.283Zm-239.193,-143.229c-0,-2.551 -0,-4.256 0.925,-6.822c75.768,9.388 135.287,74.18 135.287,152.657c-11.85,-0.913 -13.543,-2.606 -18.764,-11.98c-8.464,-13.671 -22.122,-34.102 -69.779,-50.3c-37.369,-12.786 -45.976,-46.04 -47.669,-70.768l-0,-12.787Zm-34.882,-6.822c-0,1.706 -0,3.424 0.898,5.977l-0,15.351c-1.693,24.714 -11.055,56.263 -47.643,69.049c-47.656,17.045 -61.328,37.54 -69.792,50.3c-5.99,8.464 -6.771,11.067 -18.75,11.98c0,-78.477 59.636,-143.269 135.287,-152.657Zm-185.417,523.49c-3.516,4.296 -9.375,5.078 -13.672,1.692c-3.385,-2.603 -5.078,-7.681 -2.604,-11.979l40.104,-54.557l23.828,0l-47.656,64.844Zm135.286,266.796c0,10.287 -7.682,18.751 -17.057,18.751c-9.375,0 -17.057,-8.464 -17.057,-18.751l-0,-134.635c11.068,0.781 23.047,0 34.114,-1.692l0,136.327Zm153.126,0c-0,10.287 -7.696,18.751 -16.928,18.751c-9.374,0 -17.071,-8.464 -17.071,-18.751l0,-136.327c9.389,1.692 17.853,2.473 27.228,2.473l6.771,-0l-0,133.854Zm117.434,-276.171c2.618,4.296 1.693,9.375 -2.461,11.848c-4.296,3.516 -11.067,2.605 -13.685,-1.693l-47.642,-64.713l23.827,-0l39.961,54.558Zm-88.528,-122.787c24.74,-0 45.182,14.453 52.851,34.114l-95.299,0c-3.386,0 -5.989,0 -9.375,1.693c-8.594,3.386 -12.76,13.673 -9.389,22.136c14.467,36.719 35.692,75.911 62.11,117.708c10.169,16.145 13.685,28.906 10.169,37.5c-3.385,6.771 -12.76,12.76 -27.213,15.365c-17.838,3.386 -39.987,1.693 -59.519,-3.516c-27.2,-8.464 -67.304,-8.464 -95.299,0c-19.661,5.989 -41.797,7.682 -59.635,3.516c-14.453,-2.605 -24.61,-8.594 -27.214,-15.365c-3.385,-8.594 -0,-21.355 10.156,-37.5c26.433,-41.797 47.656,-80.989 62.24,-117.708c3.385,-8.463 -0.911,-18.75 -9.375,-22.136c-2.604,-1.693 -5.209,-1.693 -8.594,-1.693l-94.401,0c7.682,-19.661 28.125,-34.114 52.735,-34.114l57.031,-0c7.682,-0 15.364,-5.989 17.057,-13.671c2.474,-11.85 6.771,-32.423 9.375,-43.491c15.235,4.298 31.38,5.991 47.657,5.991c11.067,-0 21.224,-0.782 31.38,-2.605c2.604,11.197 6.887,29.036 8.58,40.105c1.706,8.592 8.477,13.671 17.071,13.671l56.901,-0Zm-113.932,-85.286c-73.177,0 -133.725,-51.172 -148.959,-119.271c25.52,-2.605 34.896,-12.89 43.359,-27.343c6.771,-11.069 15.365,-23.83 52.735,-36.655c25.521,-8.529 42.578,-24.725 53.632,-42.629c11.082,17.904 27.228,33.255 53.646,42.629c36.602,12.825 45.066,25.586 52.748,36.655c9.374,13.671 17.838,24.738 43.346,27.343c-16.914,68.099 -77.33,119.271 -150.507,119.271Z" style="fill:#fff;fill-rule:nonzero;"/><path d="M5193.43,824.062c0,-9.375 -7.683,-17.058 -17.057,-17.058l-33.985,-0c-9.375,-0 -17.057,7.683 -17.057,17.058c-0,9.375 7.682,16.926 17.057,16.926l33.985,0c9.374,0 17.057,-7.551 17.057,-16.926Z" style="fill:#fff;fill-rule:nonzero;"/><path d="M5244.45,864.948l-7.669,4.296c-5.091,2.475 -14.453,2.475 -19.531,-0l-6.784,-4.296c-8.45,-4.298 -18.737,-1.693 -23.034,5.989c-4.167,7.682 -2.474,18.751 5.99,22.917l7.682,4.296c7.669,4.298 17.058,6.901 26.433,6.901c9.244,0 18.606,-2.603 26.302,-6.901l7.682,-4.296c8.464,-4.166 11.067,-15.235 5.976,-22.917c-4.284,-8.594 -14.44,-11.068 -23.047,-5.989Z" style="fill:#fff;fill-rule:nonzero;"/></g></svg>